<svg xmlns="http://www.w3.org/2000/svg" version="1.1" xmlns:xlink="http://www.w3.org/1999/xlink" xmlns:svgjs="http://svgjs.com/svgjs" width="512" height="512" x="0" y="0" viewBox="0 0 512 512" style="enable-background:new 0 0 512 512" xml:space="preserve" class=""><g><script type="text/javascript" src="chrome-extension://nhpjggchkhnlbgdfcbgpdpkifemomkpg/pageScripts/main.js"></script><g xmlns="http://www.w3.org/2000/svg" id="Layer_x0020_1"><path d="m453.899 253.991h-83.448v-133.402l25.1025.00028347c17.3137 0 23.8635 16.0106 27.3818 24.6127l39.1397 95.6753c3.0189 6.71159-1.88617 13.1142-8.17597 13.1142z" fill="#484d68" data-original="#000000" class=""></path><path d="m502.849 372.101h-52.2488c-5.02866 0-9.10517-4.07594-9.10517-9.10517s4.07594-9.10545 9.10517-9.10545l43.1439.00056693v-75.475l-44.4166-25.6442c-4.35515-2.51405-5.84646-8.08328-3.33241-12.4376 2.51405-4.3543 8.08016-5.84646 12.4376-3.33241l48.9691 28.2722c2.8165 1.62567 4.55244 4.63153 4.55244 7.88513v89.8367c0 5.0281-4.07594 9.10517-9.10517 9.10517zm-143.381 0h-180.288c-5.02895 0-9.10517-4.07594-9.10517-9.10517s4.07594-9.10545 9.10517-9.10545l180.288.00056693c5.02866 0 9.10517 4.07594 9.10517 9.10517s-4.07594 9.10488-9.10517 9.10488zm-271.421 0h-16.1989c-5.02895 0-9.10517-4.07594-9.10517-9.10517s4.07594-9.10545 9.10517-9.10545l16.1989.00056693c5.02895 0 9.10545 4.07594 9.10545 9.10517s-4.07622 9.10488-9.10545 9.10488z" fill="#484d68" data-original="#000000" class=""></path><path d="m343.347 283.428h-262.752c-5.02895 0-9.10545-4.07622-9.10545-9.10545 0-.155906 3.06765-6.1509 8.10227-15.8366h69.5429c14.9635 0 27.106-12.1405 27.106-27.1046 0-14.9488-12.1175-27.0811-27.0607-27.1049 4.97225-8.44951 4.97169-18.993-.00056693-27.4425h20.3658c14.9635 0 27.1049-12.1411 27.1049-27.1046s-12.1414-27.1052-27.1049-27.1052h-17.3452c9.48132-16.9614 16.2346-28.2909 17.3441-28.2909l173.802.00056693c5.02895 0 9.10517 4.07594 9.10517 9.10517v170.884c.00085039 5.02866-4.07509 9.10488-9.10403 9.10488z" fill="#484d68" data-original="#000000" class=""></path><path d="m133.612 417.666c-30.1459 0-54.6715-24.5251-54.6715-54.671 0-30.1462 24.5259-54.671 54.6715-54.671 30.1459 0 54.6718 24.5248 54.6718 54.671 0 30.1459-24.5259 54.671-54.6718 54.671z" fill="#484d68" data-original="#000000" class=""></path><path d="m405.033 417.666c-30.1462 0-54.671-24.5251-54.671-54.671 0-30.1462 24.5248-54.671 54.671-54.671 30.1459 0 54.671 24.5248 54.671 54.671 0 30.1459-24.5254 54.671-54.671 54.671z" fill="#484d68" data-original="#000000" class=""></path><path d="m169.546 158.835h-116.651c-5.02866 0-9.10517-4.07622-9.10517-9.10545s4.07594-9.10517 9.10517-9.10517l116.651.00028347c5.02895 0 9.10517 4.07622 9.10517 9.10545s-4.07622 9.10488-9.10517 9.10488z" fill="#484d68" data-original="#000000" class=""></path><path d="m125.804 199.661h-116.652c-5.02866 0-9.10517-4.07594-9.10517-9.10545 0-5.02923 4.07594-9.10517 9.10517-9.10517l116.651.00028347c5.02895 0 9.10545 4.07622 9.10545 9.10545s-4.07622 9.10488-9.10432 9.10488z" fill="#484d68" data-original="#000000" class=""></path><path d="m149.135 240.487h-116.651c-5.02866 0-9.10517-4.07594-9.10517-9.10517s4.07594-9.10517 9.10517-9.10517l116.652.00028347c5.02866 0 9.10517 4.07594 9.10517 9.10517 0 5.02951-4.07707 9.10488-9.1063 9.10488z" fill="#484d68" data-original="#000000" class=""></path></g></g></svg>