<svg xmlns="http://www.w3.org/2000/svg" version="1.1" xmlns:xlink="http://www.w3.org/1999/xlink" xmlns:svgjs="http://svgjs.com/svgjs" width="512" height="512" x="0" y="0" viewBox="0 0 64 64" style="enable-background:new 0 0 512 512" xml:space="preserve" class=""><g><script type="text/javascript" src="chrome-extension://nhpjggchkhnlbgdfcbgpdpkifemomkpg/pageScripts/main.js"></script><g xmlns="http://www.w3.org/2000/svg"><path d="m59.151 21.127 1.191-5.162c1.492-.172 2.658-1.428 2.658-2.965 0-1.654-1.346-3-3-3s-3 1.346-3 3c0 1.061.557 1.99 1.391 2.524l-1.273 5.517c-.275.028-.546.069-.812.124l-1.405-3.863c.665-.551 1.099-1.373 1.099-2.302 0-1.654-1.346-3-3-3s-3 1.346-3 3 1.346 3 3 3c.009 0 .017-.003.026-.003l1.391 3.827c-2.612 1.293-4.417 3.98-4.417 7.087v.568c0 3.314-1.213 6.504-3.416 8.982-2.563 2.885-6.246 4.539-10.105 4.539h-.331c7.576-3.479 12.852-11.133 12.852-20 0-12.131-9.869-22-22-22s-22 9.869-22 22c0 9.138 5.601 16.991 13.55 20.31-6.277.908-12.071 3.797-16.636 8.362-.581.581-.914 1.385-.914 2.207 0 1.721 1.4 3.121 3.121 3.121h.271c.586 0 1.158-.164 1.654-.475l3.661-2.288c2.343-1.464 5.041-2.239 7.802-2.243h.172.02c2.037 0 4.01.427 5.864 1.27l.138.063c.527.239 1.059.458 1.592.674h-9.295c-1.654 0-3 1.346-3 3s1.346 3 3 3h8.559c.431 0 .813.274.948.682l.088.268c.41 1.225 1.553 2.049 2.846 2.049h24.559c2.206 0 4-1.794 4-4s-1.794-4-4-4h-1.991c.687-.276 1.367-.57 2.029-.9l.768-.385c3.82-1.91 6.194-5.751 6.194-10.023 0-1.915-.36-3.786-1.072-5.563-.615-1.54-.928-3.162-.928-4.821v-2.308c2.708.021 5-2.189 5-4.931v-.142c0-2.345-1.651-4.305-3.849-4.8zm-6.151-5.127c-.551 0-1-.448-1-1s.449-1 1-1 1 .448 1 1-.449 1-1 1zm7-4c.551 0 1 .448 1 1s-.449 1-1 1-1-.448-1-1 .449-1 1-1zm-15.706 21h-4.826c2.057-2.564 3.279-5.717 3.488-9h3.993c-.162 3.267-1.103 6.327-2.655 9zm2.655-11h-4c-.228-3.658-1.683-6.981-3.968-9.568l2.827-2.827c3.005 3.318 4.904 7.635 5.141 12.395zm-18.949-18.949c4.759.237 9.077 2.137 12.395 5.14l-2.827 2.827c-2.587-2.284-5.91-3.74-9.568-3.968zm-2 0v4c-3.658.228-6.981 1.683-9.568 3.968l-2.827-2.827c3.318-3.005 7.636-4.904 12.395-5.141zm-13.809 6.554 2.827 2.827c-2.284 2.587-3.74 5.91-3.968 9.568h-4c.238-4.76 2.138-9.077 5.141-12.395zm-5.14 14.395h3.993c.209 3.283 1.431 6.436 3.488 9h-4.826c-1.552-2.673-2.493-5.733-2.655-9zm3.987 11h8.341l-1.874-1.734c-2.905-2.689-4.505-6.334-4.505-10.266 0-7.72 6.28-14 14-14s14 6.28 14 14c0 3.932-1.6 7.577-4.505 10.266l-1.874 1.734h8.341c-3.653 4.847-9.439 8-15.962 8s-12.309-3.153-15.962-8zm41.962 22c1.103 0 2 .897 2 2s-.897 2-2 2h-24.559c-.431 0-.813-.274-.948-.682l-.088-.268c-.41-1.226-1.553-2.05-2.846-2.05h-8.559c-.551 0-1-.448-1-1s.449-1 1-1h15.66c2.946.665 5.966 1.007 9.047 1.007h.036c.086 0 .172-.007.257-.008v.001zm8-30.931c0 1.617-1.314 2.931-2.931 2.931-1.348 0-2.517-.913-2.843-2.221l-.256-1.022-1.94.486.256 1.021c.372 1.487 1.392 2.672 2.714 3.282v2.761c0 1.915.36 3.786 1.072 5.563.616 1.541.928 3.163.928 4.822 0 3.51-1.95 6.664-5.089 8.233l-.768.385c-3.52 1.76-7.463 2.692-11.444 2.696-5.598-.038-11.049-1.173-16.168-3.501l-.138-.063c-2.117-.962-4.368-1.449-6.691-1.449-.007 0-.015 0-.022 0h-.172c-3.136.004-6.2.885-8.86 2.548l-3.662 2.289c-.178.111-.383.17-.594.17h-.271c-.618 0-1.121-.503-1.121-1.121 0-.295.12-.584.328-.793 5.214-5.214 12.147-8.086 19.521-8.086h13.63c4.43 0 8.658-1.898 11.601-5.21 2.527-2.844 3.92-6.506 3.92-10.311v-.568c0-3.26 2.652-5.911 5.911-5.911h.161c1.615 0 2.928 1.313 2.928 2.928z" fill="#484d68" data-original="#000000" class=""></path><path d="m34 47c-1.654 0-3 1.346-3 3s1.346 3 3 3 3-1.346 3-3-1.346-3-3-3zm0 4c-.551 0-1-.448-1-1s.449-1 1-1 1 .448 1 1-.449 1-1 1z" fill="#484d68" data-original="#000000" class=""></path><path d="m45 45c-2.206 0-4 1.794-4 4s1.794 4 4 4 4-1.794 4-4-1.794-4-4-4zm0 6c-1.103 0-2-.897-2-2s.897-2 2-2 2 .897 2 2-.897 2-2 2z" fill="#484d68" data-original="#000000" class=""></path><path d="m50 43c0 1.654 1.346 3 3 3s3-1.346 3-3-1.346-3-3-3-3 1.346-3 3zm4 0c0 .552-.449 1-1 1s-1-.448-1-1 .449-1 1-1 1 .448 1 1z" fill="#484d68" data-original="#000000" class=""></path><path d="m33 35c0-2.644-1.721-4.89-4.101-5.687l-4.648-9.878c-.972-2.064-2.771-3.663-4.935-4.384l-.949-.316-.316.948c-.729 2.188-.563 4.529.468 6.592l4.241 8.483c-1.086 1.086-1.76 2.587-1.76 4.242 0 3.309 2.691 6 6 6s6-2.691 6-6zm-12.691-13.619c-.627-1.254-.838-2.641-.622-3.998 1.195.645 2.171 1.664 2.755 2.904l4.111 8.736c-.761.057-1.481.256-2.137.571zm2.691 13.619c0-2.206 1.794-4 4-4s4 1.794 4 4-1.794 4-4 4-4-1.794-4-4z" fill="#484d68" data-original="#000000" class=""></path></g></g></svg>