<svg xmlns="http://www.w3.org/2000/svg" version="1.1" xmlns:xlink="http://www.w3.org/1999/xlink" xmlns:svgjs="http://svgjs.com/svgjs" width="512" height="512" x="0" y="0" viewBox="0 0 511.84 511.84" style="enable-background:new 0 0 512 512" xml:space="preserve" class=""><g><script type="text/javascript" src="chrome-extension://nhpjggchkhnlbgdfcbgpdpkifemomkpg/pageScripts/main.js"></script><g xmlns="http://www.w3.org/2000/svg"><g><path d="m504.34 123.35v311.5c0 6.63-5.37 12-12 12h-472.84c-6.63 0-12-5.37-12-12v-311.5l29.347-19.704 423.652-9.476z" fill="#f2fbff" data-original="#f2fbff" class=""></path><path d="m44.5 446.85h-25c-6.63 0-12-5.37-12-12v-311.5l13.826-19.704 11.174 19.704v311.5c0 6.63 5.37 12 12 12z" fill="#d8ecfe" data-original="#d8ecfe" class=""></path><path d="m504.34 76.99v46.36h-496.84v-46.36c0-6.62 5.37-12 12-12h472.84c6.63 0 12 5.38 12 12z" fill="#b3dafe" data-original="#b3dafe" class=""></path><path d="m44.5 64.99c-6.63 0-12 5.38-12 12v46.36h-25v-46.36c0-6.62 5.37-12 12-12z" fill="#8ac9fe" data-original="#8ac9fe"></path><path d="m389.466 254.71v103.91c0 2.21-1.79 4-4 4h-129.07c-2.21 0-4-1.79-4-4v-103.91c0-2.2 1.79-4 4-4h129.07c2.21 0 4 1.8 4 4z" fill="#b3dafe" data-original="#b3dafe" class=""></path><path d="m281.396 362.62h-25c-2.21 0-4-1.79-4-4v-103.91c0-2.2 1.79-4 4-4h25c-2.21 0-4 1.8-4 4v103.91c0 2.21 1.79 4 4 4z" fill="#8ac9fe" data-original="#8ac9fe"></path><path d="m389.466 317.49v41.13c0 2.21-1.79 4-4 4h-129.07c-2.21 0-4-1.79-4-4v-28.48l57.49-40.79c1.09-.77 2.48-.95 3.73-.48z" fill="#c9f6b0" data-original="#c9f6b0"></path><path d="m457.567 316.31-24.37 18.04c-1.2.88-1.8 2.36-1.58 3.82l4.62 29.98c.56 3.66-3.74 6.06-6.56 3.64l-73.24-62.68c-2.93-2.51-.95-7.31 2.9-7.03l96.14 7.02c3.699.27 5.07 5 2.09 7.21z" fill="#fe99a0" data-original="#fe99a0"></path><path d="m281.396 362.62h-25c-2.21 0-4-1.79-4-4v-28.48l25-17.74v46.22c0 2.21 1.79 4 4 4z" fill="#9be69d" data-original="#9be69d"></path><path d="m429.674 371.793-73.24-62.68c-2.93-2.51-.95-7.31 2.9-7.03l21.52 1.57c-1.17 1.56-1.2 3.93.58 5.46l52.64 45.05 2.16 13.99c.56 3.66-3.74 6.06-6.56 3.64z" fill="#fd8087" data-original="#fd8087"></path></g><g><path d="m492.34 57.49h-472.84c-10.752 0-19.5 8.747-19.5 19.5v357.86c0 10.752 8.748 19.5 19.5 19.5h16.66c4.143 0 7.5-3.358 7.5-7.5s-3.357-7.5-7.5-7.5h-16.66c-2.481 0-4.5-2.019-4.5-4.5v-304.001h481.84v15.851c0 4.142 3.357 7.5 7.5 7.5s7.5-3.358 7.5-7.5v-69.71c0-10.753-8.748-19.5-19.5-19.5zm-477.34 58.359v-38.859c0-2.481 2.019-4.5 4.5-4.5h472.84c2.481 0 4.5 2.019 4.5 4.5v38.859z" fill="#000000" data-original="#000000" class=""></path><path d="m504.34 174.2c-4.143 0-7.5 3.358-7.5 7.5v253.15c0 2.481-2.019 4.5-4.5 4.5h-421.18c-4.143 0-7.5 3.358-7.5 7.5s3.357 7.5 7.5 7.5h421.18c10.752 0 19.5-8.748 19.5-19.5v-253.15c0-4.142-3.358-7.5-7.5-7.5z" fill="#000000" data-original="#000000" class=""></path><path d="m313.36 86.67h-262.87c-4.143 0-7.5 3.358-7.5 7.5s3.357 7.5 7.5 7.5h262.87c4.143 0 7.5-3.358 7.5-7.5s-3.357-7.5-7.5-7.5z" fill="#000000" data-original="#000000" class=""></path><path d="m461.35 86.67h-3.392c-4.143 0-7.5 3.358-7.5 7.5s3.357 7.5 7.5 7.5h3.392c4.143 0 7.5-3.358 7.5-7.5s-3.358-7.5-7.5-7.5z" fill="#000000" data-original="#000000" class=""></path><path d="m432.958 86.67h-3.392c-4.143 0-7.5 3.358-7.5 7.5s3.357 7.5 7.5 7.5h3.392c4.143 0 7.5-3.358 7.5-7.5s-3.357-7.5-7.5-7.5z" fill="#000000" data-original="#000000" class=""></path><path d="m404.566 86.67h-3.391c-4.143 0-7.5 3.358-7.5 7.5s3.357 7.5 7.5 7.5h3.391c4.143 0 7.5-3.358 7.5-7.5s-3.357-7.5-7.5-7.5z" fill="#000000" data-original="#000000" class=""></path><path d="m208.136 345.928h10.5c5.238 0 9.5-4.262 9.5-9.5v-9.5c0-4.142-3.357-7.5-7.5-7.5s-7.5 3.358-7.5 7.5v4h-5c-4.143 0-7.5 3.358-7.5 7.5s3.357 7.5 7.5 7.5z" fill="#000000" data-original="#000000" class=""></path><path d="m177.711 330.928h-25.354c-4.143 0-7.5 3.358-7.5 7.5s3.357 7.5 7.5 7.5h25.354c4.143 0 7.5-3.358 7.5-7.5s-3.357-7.5-7.5-7.5z" fill="#000000" data-original="#000000" class=""></path><path d="m96.579 345.928h25.354c4.143 0 7.5-3.358 7.5-7.5s-3.357-7.5-7.5-7.5h-25.354c-4.143 0-7.5 3.358-7.5 7.5s3.358 7.5 7.5 7.5z" fill="#000000" data-original="#000000" class=""></path><path d="m73.655 338.428c0-4.142-3.357-7.5-7.5-7.5h-5v-4c0-4.142-3.357-7.5-7.5-7.5s-7.5 3.358-7.5 7.5v9.5c0 5.238 4.262 9.5 9.5 9.5h10.5c4.143 0 7.5-3.358 7.5-7.5z" fill="#000000" data-original="#000000" class=""></path><path d="m46.155 301.071c0 4.142 3.357 7.5 7.5 7.5s7.5-3.358 7.5-7.5v-20.714c0-4.142-3.357-7.5-7.5-7.5s-7.5 3.358-7.5 7.5z" fill="#000000" data-original="#000000" class=""></path><path d="m46.155 255.5c0 4.142 3.357 7.5 7.5 7.5s7.5-3.358 7.5-7.5v-20.714c0-4.142-3.357-7.5-7.5-7.5s-7.5 3.358-7.5 7.5z" fill="#000000" data-original="#000000" class=""></path><path d="m53.655 216.43c4.143 0 7.5-3.358 7.5-7.5v-4h5c4.143 0 7.5-3.358 7.5-7.5s-3.357-7.5-7.5-7.5h-10.5c-5.238 0-9.5 4.262-9.5 9.5v9.5c0 4.142 3.358 7.5 7.5 7.5z" fill="#000000" data-original="#000000" class=""></path><path d="m177.711 189.93h-25.354c-4.143 0-7.5 3.358-7.5 7.5s3.357 7.5 7.5 7.5h25.354c4.143 0 7.5-3.358 7.5-7.5s-3.357-7.5-7.5-7.5z" fill="#000000" data-original="#000000" class=""></path><path d="m121.933 189.93h-25.354c-4.143 0-7.5 3.358-7.5 7.5s3.357 7.5 7.5 7.5h25.354c4.143 0 7.5-3.358 7.5-7.5s-3.358-7.5-7.5-7.5z" fill="#000000" data-original="#000000" class=""></path><path d="m228.136 199.43c0-5.238-4.262-9.5-9.5-9.5h-10.5c-4.143 0-7.5 3.358-7.5 7.5s3.357 7.5 7.5 7.5h5v4c0 4.142 3.357 7.5 7.5 7.5s7.5-3.358 7.5-7.5z" fill="#000000" data-original="#000000" class=""></path><path d="m220.636 272.857c-4.143 0-7.5 3.358-7.5 7.5v20.714c0 4.142 3.357 7.5 7.5 7.5s7.5-3.358 7.5-7.5v-20.714c0-4.142-3.358-7.5-7.5-7.5z" fill="#000000" data-original="#000000" class=""></path><path d="m228.136 234.787c0-4.142-3.357-7.5-7.5-7.5s-7.5 3.358-7.5 7.5v20.713c0 4.142 3.357 7.5 7.5 7.5s7.5-3.358 7.5-7.5z" fill="#000000" data-original="#000000" class=""></path><path d="m384.46 243.21h-129.07c-6.341 0-11.5 5.159-11.5 11.5v103.91c0 6.341 5.159 11.5 11.5 11.5h129.07c6.341 0 11.5-5.159 11.5-11.5v-4.951l27.835 23.823c2.15 1.841 4.789 2.785 7.457 2.785 1.912 0 3.839-.485 5.612-1.471 4.247-2.363 6.515-6.995 5.775-11.799l-4.293-27.885 22.675-16.787c3.906-2.892 5.557-7.776 4.203-12.445s-5.36-7.914-10.208-8.268l-59.057-4.311v-42.601c.001-6.341-5.158-11.5-11.499-11.5zm-3.5 15v38.006l-22.088-1.612c-2.239-.167-4.403.328-6.281 1.337l-37.34-14.09c-3.577-1.347-7.576-.832-10.711 1.383l-45.65 32.392v-57.416zm0 96.91h-122.07v-21.103l52.812-37.474 35.506 13.399c.659 1.842 1.785 3.529 3.348 4.867l30.403 26.021v14.29zm46.762-26.797c-3.442 2.55-5.175 6.763-4.522 10.992l3.179 20.644-57.977-49.619 76.108 5.555z" fill="#000000" data-original="#000000" class=""></path><path d="m137.453 234.509c-4.143 0-7.5 3.358-7.5 7.5v18.111h-18.728c-4.143 0-7.5 3.358-7.5 7.5s3.357 7.5 7.5 7.5h18.728v18.728c0 4.142 3.357 7.5 7.5 7.5s7.5-3.358 7.5-7.5v-18.728h18.111c4.143 0 7.5-3.358 7.5-7.5s-3.357-7.5-7.5-7.5h-18.111v-18.111c0-4.142-3.357-7.5-7.5-7.5z" fill="#000000" data-original="#000000" class=""></path></g></g></g></svg>
