<svg xmlns="http://www.w3.org/2000/svg" version="1.1" xmlns:xlink="http://www.w3.org/1999/xlink" xmlns:svgjs="http://svgjs.com/svgjs" width="512" height="512" x="0" y="0" viewBox="0 0 32 32" style="enable-background:new 0 0 512 512" xml:space="preserve" class="hovered-paths"><g><script type="text/javascript" src="chrome-extension://nhpjggchkhnlbgdfcbgpdpkifemomkpg/pageScripts/main.js"></script><g xmlns="http://www.w3.org/2000/svg" id="a98320b4-c804-49e8-bb64-e76768f68178" data-name="Layer 30"><path d="m13 5v22a3 3 0 0 1 -3 3h-1a3 3 0 0 1 -3-3v-22a3 3 0 0 1 3-3h1a3 3 0 0 1 3 3zm10-3h-1a3 3 0 0 0 -3 3v22a3 3 0 0 0 3 3h1a3 3 0 0 0 3-3v-22a3 3 0 0 0 -3-3z" fill="#fff6f6" data-original="#000000" class="hovered-path"></path></g></g></svg>
