<svg xmlns="http://www.w3.org/2000/svg" version="1.1" xmlns:xlink="http://www.w3.org/1999/xlink" xmlns:svgjs="http://svgjs.com/svgjs" width="512" height="512" x="0" y="0" viewBox="0 0 512 512" style="enable-background:new 0 0 512 512" xml:space="preserve" class=""><g><script type="text/javascript" src="chrome-extension://nhpjggchkhnlbgdfcbgpdpkifemomkpg/pageScripts/main.js"></script><path xmlns="http://www.w3.org/2000/svg" d="m459.597656 452.097656v-42.429687c0-4.144531-3.359375-7.5-7.5-7.5-4.144531 0-7.5 3.355469-7.5 7.5v34.929687h-377.195312v-307.597656c0-4.140625-3.355469-7.5-7.5-7.5-4.140625 0-7.5 3.359375-7.5 7.5v315.097656c0 4.140625 3.359375 7.5 7.5 7.5h392.195312c4.140625 0 7.5-3.359375 7.5-7.5zm0 0" fill="#879bb4" data-original="#000000" class=""></path><path xmlns="http://www.w3.org/2000/svg" d="m52.402344 59.902344v45.761718c0 4.144532 3.359375 7.5 7.5 7.5 4.144531 0 7.5-3.355468 7.5-7.5v-38.261718h377.195312v310.265625c0 4.140625 3.355469 7.5 7.5 7.5 4.140625 0 7.5-3.359375 7.5-7.5v-317.765625c0-4.140625-3.359375-7.5-7.5-7.5h-392.195312c-4.140625 0-7.5 3.359375-7.5 7.5zm0 0" fill="#879bb4" data-original="#000000" class=""></path><path xmlns="http://www.w3.org/2000/svg" d="m7.5 53.039062c4.144531 0 7.5-3.355468 7.5-7.5v-30.539062h34.105469c4.144531 0 7.5-3.359375 7.5-7.5s-3.355469-7.5-7.496094-7.5h-41.609375c-4.140625 0-7.5 3.359375-7.5 7.5v38.039062c0 4.144532 3.359375 7.5 7.5 7.5zm0 0" fill="#879bb4" data-original="#000000" class=""></path><path xmlns="http://www.w3.org/2000/svg" d="m49.109375 497h-34.109375v-30.539062c0-4.144532-3.355469-7.5-7.5-7.5s-7.5 3.355468-7.5 7.5v38.039062c0 4.140625 3.355469 7.5 7.5 7.5h41.605469c4.144531 0 7.5-3.359375 7.5-7.5s-3.355469-7.5-7.496094-7.5zm0 0" fill="#879bb4" data-original="#000000" class=""></path><path xmlns="http://www.w3.org/2000/svg" d="m504.5 0h-41.605469c-4.144531 0-7.5 3.359375-7.5 7.5s3.355469 7.5 7.5 7.5h34.105469v30.539062c0 4.144532 3.355469 7.5 7.5 7.5s7.5-3.355468 7.5-7.5v-38.039062c0-4.140625-3.355469-7.5-7.5-7.5zm0 0" fill="#879bb4" data-original="#000000" class=""></path><path xmlns="http://www.w3.org/2000/svg" d="m504.5 458.960938c-4.144531 0-7.5 3.355468-7.5 7.5v30.539062h-34.105469c-4.144531 0-7.5 3.359375-7.5 7.5s3.355469 7.5 7.5 7.5h41.605469c4.144531 0 7.5-3.359375 7.5-7.5v-38.039062c0-4.144532-3.355469-7.5-7.5-7.5zm0 0" fill="#879bb4" data-original="#000000" class=""></path><path xmlns="http://www.w3.org/2000/svg" d="m325.558594 419.117188c36.589844 0 66.355468-29.765626 66.355468-66.355469 0-36.589844-29.765624-66.359375-66.355468-66.359375-2.929688 0-5.8125.210937-8.644532.582031l-21.128906-31.542969c15.785156-9.320312 29.941406-22.941406 41.179688-39.714844 14.128906-21.089843 22.003906-44.957031 22.167968-67.199218.175782-23.066406-7.878906-42.25-22.679687-54.015625-1.640625-1.300781-3.75-1.863281-5.820313-1.539063-2.070312.324219-3.910156 1.496094-5.078124 3.238282l-68.21875 101.835937-68.226563-101.839844c-1.164063-1.738281-3.007813-2.914062-5.074219-3.234375-2.070312-.324218-4.183594.234375-5.820312 1.539063-14.800782 11.761719-22.855469 30.945312-22.683594 54.015625.167969 22.242187 8.042969 46.105468 22.171875 67.199218 11.183594 16.695313 25.617187 30.4375 41.195313 39.6875l-21.386719 31.929688c-3.605469-.609375-7.296875-.941406-11.070313-.941406-36.589844 0-66.355468 29.769531-66.355468 66.359375 0 36.585937 29.765624 66.355469 66.355468 66.355469s66.359375-29.769532 66.359375-66.355469c0-15.039063-5.039062-28.921875-13.503906-40.0625l18.035156-26.917969 16.808594 25.089844c-9.332031 11.429687-14.941406 26.015625-14.941406 41.890625 0 36.589843 29.769531 66.355469 66.359375 66.355469zm51.355468-66.355469c0 28.316406-23.035156 51.355469-51.355468 51.355469-28.316406 0-51.355469-23.039063-51.355469-51.355469 0-24.105469 16.695313-44.375 39.128906-49.875 1.132813.027343 2.273438-.199219 3.347657-.699219 2.886718-.507812 5.851562-.785156 8.878906-.785156 28.320312 0 51.355468 23.039062 51.355468 51.359375zm-43.917968-240.707031c7.34375 8.957031 11.25 21.554687 11.140625 36.359374-.148438 19.339844-7.121094 40.28125-19.632813 58.960938-10.167968 15.179688-22.929687 27.402344-37.078125 35.585938l-21.066406-31.441407zm-142.832032 95.320312c-12.515624-18.679688-19.488281-39.621094-19.632812-58.960938-.109375-14.804687 3.796875-27.40625 11.140625-36.359374l119.835937 178.878906c-5.941406 2.320312-11.464843 5.464844-16.433593 9.304687l-30.144531-44.996093c-1.085938-1.625-2.765626-2.757813-4.679688-3.164063-21.984375-4.644531-44.445312-21.355469-60.085938-44.703125zm-3.722656 196.742188c-28.316406 0-51.355468-23.039063-51.355468-51.355469 0-28.320313 23.039062-51.359375 51.355468-51.359375 28.320313 0 51.359375 23.039062 51.359375 51.359375 0 28.316406-23.039062 51.355469-51.359375 51.355469zm42.230469-102.503907c-4.832031-3.996093-10.242187-7.316406-16.078125-9.832031l19.828125-29.601562c3.878906 1.585937 7.785156 2.886718 11.695313 3.875l4.1875 6.25zm0 0" fill="#879bb4" data-original="#000000" class=""></path><path xmlns="http://www.w3.org/2000/svg" d="m297.75 352.761719c0 15.332031 12.476562 27.804687 27.808594 27.804687 15.332031 0 27.808594-12.472656 27.808594-27.804687 0-15.335938-12.476563-27.808594-27.808594-27.808594-15.332032 0-27.808594 12.472656-27.808594 27.808594zm40.617188 0c0 7.058593-5.746094 12.804687-12.808594 12.804687s-12.808594-5.746094-12.808594-12.804687c0-7.0625 5.746094-12.808594 12.808594-12.808594s12.808594 5.746094 12.808594 12.808594zm0 0" fill="#879bb4" data-original="#000000" class=""></path><path xmlns="http://www.w3.org/2000/svg" d="m186.558594 324.953125c-15.332032 0-27.808594 12.476563-27.808594 27.808594s12.476562 27.808593 27.808594 27.808593c15.332031 0 27.808594-12.476562 27.808594-27.808593s-12.476563-27.808594-27.808594-27.808594zm0 40.613281c-7.0625 0-12.808594-5.746094-12.808594-12.804687 0-7.0625 5.746094-12.808594 12.808594-12.808594s12.808594 5.746094 12.808594 12.808594c0 7.058593-5.746094 12.804687-12.808594 12.804687zm0 0" fill="#879bb4" data-original="#000000" class=""></path></g></svg>