<svg xmlns="http://www.w3.org/2000/svg" version="1.1" xmlns:xlink="http://www.w3.org/1999/xlink" xmlns:svgjs="http://svgjs.com/svgjs" width="512" height="512" x="0" y="0" viewBox="0 0 512 512" style="enable-background:new 0 0 512 512" xml:space="preserve" class=""><g><script type="text/javascript" src="chrome-extension://nhpjggchkhnlbgdfcbgpdpkifemomkpg/pageScripts/main.js"></script><path xmlns="http://www.w3.org/2000/svg" d="m86.5 35.75h339v30h-339z" fill="#879bb4" data-original="#8ffaff" class=""></path><path xmlns="http://www.w3.org/2000/svg" d="m86.5 446.25h339v30h-339z" fill="#879bb4" data-original="#8ffaff" class=""></path><path xmlns="http://www.w3.org/2000/svg" d="m256 35.75h169.5v30h-169.5z" fill="#879bb4" data-original="#3be2e2" class=""></path><path xmlns="http://www.w3.org/2000/svg" d="m256 446.25h169.5v30h-169.5z" fill="#879bb4" data-original="#3be2e2" class=""></path><path xmlns="http://www.w3.org/2000/svg" d="m376.95 142v55.13h-30v-25.13h-75.95v170.85h26v30h-82v-30h26v-170.85h-75.95v25.13h-30v-55.13z" fill="#879bb4" data-original="#455da0" class=""></path><path xmlns="http://www.w3.org/2000/svg" d="m35.75 86.5h30v334.5h-30z" fill="#879bb4" data-original="#8ffaff" class=""></path><path xmlns="http://www.w3.org/2000/svg" d="m446.25 86.5h30v334.5h-30z" fill="#879bb4" data-original="#3be2e2" class=""></path><g xmlns="http://www.w3.org/2000/svg" fill="#50c5ff"><path d="m57.667 115.333c31.797 0 57.666-25.869 57.666-57.667 0-31.797-25.869-57.666-57.666-57.666-31.798 0-57.667 25.869-57.667 57.667 0 31.797 25.869 57.666 57.667 57.666z" fill="#879bb4" data-original="#50c5ff" class=""></path><path d="m57.667 396.667c-31.798 0-57.667 25.869-57.667 57.666 0 31.798 25.869 57.667 57.667 57.667 31.797 0 57.666-25.869 57.666-57.667 0-31.797-25.869-57.666-57.666-57.666z" fill="#879bb4" data-original="#50c5ff" class=""></path></g><g xmlns="http://www.w3.org/2000/svg" fill="#488aff"><path d="m454.333 115.333c31.798 0 57.667-25.869 57.667-57.667 0-31.797-25.869-57.666-57.667-57.666-31.797 0-57.666 25.869-57.666 57.667 0 31.797 25.869 57.666 57.666 57.666z" fill="#879bb4" data-original="#488aff" class=""></path><path d="m454.333 396.667c-31.797 0-57.666 25.869-57.666 57.667 0 31.797 25.869 57.667 57.666 57.667 31.798-.001 57.667-25.87 57.667-57.668 0-31.797-25.869-57.666-57.667-57.666z" fill="#879bb4" data-original="#488aff" class=""></path></g><path xmlns="http://www.w3.org/2000/svg" d="m297 372.85h-41v-230.85h120.95v55.13h-30v-25.13h-75.95v170.85h26z" fill="#879bb4" data-original="#1f4271" class=""></path></g></svg>