<svg xmlns="http://www.w3.org/2000/svg" version="1.1" xmlns:xlink="http://www.w3.org/1999/xlink" xmlns:svgjs="http://svgjs.com/svgjs" width="512" height="512" x="0" y="0" viewBox="0 0 32 32" style="enable-background:new 0 0 512 512" xml:space="preserve" class=""><g><script type="text/javascript" src="chrome-extension://nhpjggchkhnlbgdfcbgpdpkifemomkpg/pageScripts/main.js"></script><g xmlns="http://www.w3.org/2000/svg" id="_x31_2"><path d="m3 8c-.5522 0-1-.4473-1-1v-4c0-.5527.4478-1 1-1h3c.5522 0 1 .4473 1 1s-.4478 1-1 1h-2v3c0 .5527-.4478 1-1 1z" fill="#ffffff" data-original="#000000" class=""></path><path d="m6 30h-3c-.5522 0-1-.4473-1-1v-4c0-.5527.4478-1 1-1s1 .4473 1 1v3h2c.5522 0 1 .4473 1 1s-.4478 1-1 1z" fill="#ffffff" data-original="#000000" class=""></path><path d="m29 8c-.5522 0-1-.4473-1-1v-3h-2c-.5522 0-1-.4473-1-1s.4478-1 1-1h3c.5522 0 1 .4473 1 1v4c0 .5527-.4478 1-1 1z" fill="#ffffff" data-original="#000000" class=""></path><path d="m29 30h-3c-.5522 0-1-.4473-1-1s.4478-1 1-1h2v-3c0-.5527.4478-1 1-1s1 .4473 1 1v4c0 .5527-.4478 1-1 1z" fill="#ffffff" data-original="#000000" class=""></path><path d="m26 24h-20c-.5522 0-1-.4473-1-1v-7c0-.5527.4478-1 1-1s1 .4473 1 1v6h18v-6c0-.5527.4478-1 1-1s1 .4473 1 1v7c0 .5527-.4478 1-1 1z" fill="#ffffff" data-original="#000000" class=""></path><path d="m26 13c-.5522 0-1-.4473-1-1v-2h-18v2c0 .5527-.4478 1-1 1s-1-.4473-1-1v-3c0-.5527.4478-1 1-1h20c.5522 0 1 .4473 1 1v3c0 .5527-.4478 1-1 1z" fill="#ffffff" data-original="#000000" class=""></path><path d="m21 24c-.2559 0-.5117-.0977-.707-.293l-6.3452-6.3447-6.2969 5.3965c-.4194.3594-1.0508.3115-1.4102-.1084-.3594-.4189-.311-1.0498.1084-1.4092l7-6c.3965-.3389.9883-.3184 1.3579.0518l7 7c.3906.3906.3906 1.0234 0 1.4141-.1953.1952-.4511.2929-.707.2929z" fill="#ffffff" data-original="#000000" class=""></path><path d="m19 21c-.2559 0-.5117-.0977-.707-.293-.3906-.3906-.3906-1.0234 0-1.4141l4-4c.3906-.3906 1.0234-.3906 1.4141 0l3 3c.3906.3906.3906 1.0234 0 1.4141s-1.0234.3906-1.4141 0l-2.293-2.2929-3.293 3.293c-.1953.1952-.4511.2929-.707.2929z" fill="#ffffff" data-original="#000000" class=""></path><path d="m29 14h-26c-.5522 0-1-.4473-1-1s.4478-1 1-1h26c.5522 0 1 .4473 1 1s-.4478 1-1 1z" fill="#ffffff" data-original="#000000" class=""></path></g></g></svg>