<svg xmlns="http://www.w3.org/2000/svg" version="1.1" xmlns:xlink="http://www.w3.org/1999/xlink" xmlns:svgjs="http://svgjs.com/svgjs" width="512" height="512" x="0" y="0" viewBox="0 0 512 512" style="enable-background:new 0 0 512 512" xml:space="preserve" class=""><g><script type="text/javascript" src="chrome-extension://nhpjggchkhnlbgdfcbgpdpkifemomkpg/pageScripts/main.js"></script>
<g xmlns="http://www.w3.org/2000/svg">
	<g>
		<path d="M393.32,286.07c0-8.31-6.725-15.035-15.035-15.035c-8.31,0-15.035,6.725-15.035,15.035    c0,58.026-49.224,105.245-107.25,105.245S148.75,344.096,148.75,286.07c0-8.31-6.725-15.035-15.035-15.035    s-15.035,6.725-15.035,15.035c0,69.469,54.813,126.205,122.285,133.796v31.59h-47.11c-8.31,0-15.035,6.725-15.035,15.035    s6.725,15.035,15.035,15.035h124.29c8.31,0,15.035-6.725,15.035-15.035s-6.725-15.035-15.035-15.035h-47.11v-31.59    C338.507,412.275,393.32,355.54,393.32,286.07z" fill="#ffffff" data-original="#000000" class=""></path>
	</g>
</g>
<g xmlns="http://www.w3.org/2000/svg">
	<g>
		<path d="M256,30.474c-41.45,0-77.18,33.726-77.18,75.175v180.42c0,41.45,35.731,75.175,77.18,75.175    c41.45,0,77.18-33.726,77.18-75.175V105.65C333.179,64.2,297.449,30.474,256,30.474z" fill="#ffffff" data-original="#000000" class=""></path>
	</g>
</g>
<g xmlns="http://www.w3.org/2000/svg">
	<g>
		<path d="M463.547,53.263c-5.873-5.873-15.388-5.873-21.261,0c-5.873,5.873-5.873,15.388,0,21.261    c25.563,25.547,39.643,59.524,39.643,95.672c0,36.148-14.081,70.139-39.643,95.687c-5.873,5.873-5.873,15.388,0,21.261    c5.873,5.873,15.387,5.873,21.261,0C494.792,255.913,512,214.39,512,170.195C512,126.015,494.792,84.492,463.547,53.263z" fill="#ffffff" data-original="#000000" class=""></path>
	</g>
</g>
<g xmlns="http://www.w3.org/2000/svg">
	<g>
		<path d="M420.997,95.812c-5.873-5.873-15.388-5.873-21.26,0c-5.873,5.873-5.873,15.402,0,21.261    c14.227,14.213,22.053,33.08,22.053,53.122c0,20.042-7.826,38.909-22.053,53.137c-5.874,5.874-5.874,15.388,0,21.261    c5.873,5.873,15.388,5.873,21.26,0c19.909-19.895,30.863-46.324,30.863-74.397C451.86,142.107,440.892,115.692,420.997,95.812z" fill="#ffffff" data-original="#000000" class=""></path>
	</g>
</g>
<g xmlns="http://www.w3.org/2000/svg">
	<g>
		<path d="M378.49,138.319c-5.873-5.873-15.388-5.873-21.261,0s-5.873,15.388,0,21.261c2.849,2.849,4.419,6.621,4.419,10.616    c0,4.008-1.571,7.782-4.419,10.63c-5.873,5.874-5.873,15.388,0,21.261s15.388,5.873,21.261,0    c8.531-8.531,13.229-19.851,13.229-31.89C391.719,158.17,387.02,146.85,378.49,138.319z" fill="#ffffff" data-original="#000000" class=""></path>
	</g>
</g>
<g xmlns="http://www.w3.org/2000/svg">
	<g>
		<path d="M30.07,170.195c0-36.148,14.081-70.124,39.643-95.672c5.873-5.873,5.873-15.388,0-21.261s-15.388-5.873-21.261,0    C17.208,84.492,0,126.015,0,170.195c0,44.195,17.208,85.717,48.453,116.948c5.873,5.873,15.388,5.873,21.261,0    c5.873-5.873,5.873-15.388,0-21.261C44.151,240.333,30.07,206.343,30.07,170.195z" fill="#ffffff" data-original="#000000" class=""></path>
	</g>
</g>
<g xmlns="http://www.w3.org/2000/svg">
	<g>
		<path d="M90.21,170.195c0-20.042,7.826-38.909,22.053-53.122c5.873-5.859,5.873-15.388,0-21.261s-15.388-5.873-21.261,0    c-19.895,19.88-30.863,46.294-30.863,74.382c0,28.073,10.953,54.502,30.863,74.397c5.873,5.873,15.388,5.873,21.261,0    s5.873-15.388,0-21.26C98.036,209.104,90.21,190.237,90.21,170.195z" fill="#ffffff" data-original="#000000" class=""></path>
	</g>
</g>
<g xmlns="http://www.w3.org/2000/svg">
	<g>
		<path d="M150.35,170.195c0-3.993,1.571-7.767,4.419-10.616c5.874-5.873,5.874-15.388,0-21.261c-5.873-5.873-15.388-5.873-21.261,0    c-8.53,8.531-13.229,19.851-13.229,31.876c0,12.04,4.699,23.36,13.229,31.89c5.873,5.873,15.388,5.873,21.261,0    s5.873-15.388,0-21.261C151.921,177.976,150.35,174.203,150.35,170.195z" fill="#ffffff" data-original="#000000" class=""></path>
	</g>
</g>
<g xmlns="http://www.w3.org/2000/svg">
</g>
<g xmlns="http://www.w3.org/2000/svg">
</g>
<g xmlns="http://www.w3.org/2000/svg">
</g>
<g xmlns="http://www.w3.org/2000/svg">
</g>
<g xmlns="http://www.w3.org/2000/svg">
</g>
<g xmlns="http://www.w3.org/2000/svg">
</g>
<g xmlns="http://www.w3.org/2000/svg">
</g>
<g xmlns="http://www.w3.org/2000/svg">
</g>
<g xmlns="http://www.w3.org/2000/svg">
</g>
<g xmlns="http://www.w3.org/2000/svg">
</g>
<g xmlns="http://www.w3.org/2000/svg">
</g>
<g xmlns="http://www.w3.org/2000/svg">
</g>
<g xmlns="http://www.w3.org/2000/svg">
</g>
<g xmlns="http://www.w3.org/2000/svg">
</g>
<g xmlns="http://www.w3.org/2000/svg">
</g>
</g></svg>