<svg xmlns="http://www.w3.org/2000/svg" version="1.1" xmlns:xlink="http://www.w3.org/1999/xlink" xmlns:svgjs="http://svgjs.com/svgjs" width="512" height="512" x="0" y="0" viewBox="0 0 24 24" style="enable-background:new 0 0 512 512" xml:space="preserve" class=""><g><script type="text/javascript" src="chrome-extension://nhpjggchkhnlbgdfcbgpdpkifemomkpg/pageScripts/main.js"></script><path xmlns="http://www.w3.org/2000/svg" d="m10 1.25a8.75 8.75 0 0 0 0 17.5 8.1 8.1 0 0 0 1.49-.13 7.723 7.723 0 0 0 1.45-.38l.24-.09c-.01-.01-.01-.01-.01-.02a3.279 3.279 0 0 1 -.16-1.04.277.277 0 0 1 -.01-.09c0-.14.01-.29.02-.43a1.264 1.264 0 0 1 -.26.13 6.446 6.446 0 0 1 -1.5.43 6.564 6.564 0 0 1 -1.26.12 7.25 7.25 0 1 1 7.25-7.25 6.564 6.564 0 0 1 -.12 1.26 6.446 6.446 0 0 1 -.43 1.5 1.264 1.264 0 0 1 -.13.26c.14-.01.29-.02.43-.02a.277.277 0 0 1 .09.01 3.279 3.279 0 0 1 1.04.16c.01 0 .01 0 .02.01a2.443 2.443 0 0 0 .1-.24 8.556 8.556 0 0 0 .37-1.45 8.1 8.1 0 0 0 .13-1.49 8.766 8.766 0 0 0 -8.75-8.75z" fill="#ffffff" data-original="#000000" class=""></path><path xmlns="http://www.w3.org/2000/svg" d="m13.3 8.48-3.99-2.28a1.754 1.754 0 0 0 -2.62 1.52v4.56a1.743 1.743 0 0 0 .87 1.51 1.767 1.767 0 0 0 .88.24 1.8 1.8 0 0 0 .87-.23l3.99-2.28a1.753 1.753 0 0 0 0-3.04z" fill="#ffffff" data-original="#000000" class=""></path><path xmlns="http://www.w3.org/2000/svg" d="m18.62 11.49a4.889 4.889 0 0 0 -1.49-.23.57.57 0 0 0 -.13-.01 5.757 5.757 0 0 0 -5.75 5.75.57.57 0 0 0 .01.13 4.889 4.889 0 0 0 .23 1.49 5.746 5.746 0 1 0 7.13-7.13zm.5 5.93-2 3a.751.751 0 0 1 -.62.33.741.741 0 0 1 -.42-.13.751.751 0 0 1 -.2-1.04l1.22-1.83h-1.6a.752.752 0 0 1 -.62-1.17l2-3a.749.749 0 1 1 1.24.84l-1.22 1.83h1.6a.752.752 0 0 1 .62 1.17z" fill="#ffffff" data-original="#000000" class=""></path></g></svg>
