<svg xmlns="http://www.w3.org/2000/svg" version="1.1" xmlns:xlink="http://www.w3.org/1999/xlink" xmlns:svgjs="http://svgjs.com/svgjs" width="512" height="512" x="0" y="0" viewBox="0 0 135.46666 135.46667" style="enable-background:new 0 0 512 512" xml:space="preserve" class=""><g><script type="text/javascript" src="chrome-extension://nhpjggchkhnlbgdfcbgpdpkifemomkpg/pageScripts/main.js"></script><g xmlns="http://www.w3.org/2000/svg" id="layer1"><g id="g7787"><path id="path8083" d="m72.445069 5.5225542c-.09685-.0004332-.194253.00303-.292624.010452-1.998517.1508094-3.712608 1.5320143-5.611098 3.7035742-1.89849 2.1715596-3.974829 5.2670086-6.310308 9.3440356-.235495.411096-.473905.841272-.713645 1.279977.164666-.581557.280274-1.072537.349358-1.52184.139348-.9063-.0033-1.854321-.441922-2.496254-.362566-.530627-.886478-.971532-1.476055-1.261564-.06454-.480199-.213187-.927032-.454361-1.279978-.695633-1.018076-1.983943-1.711431-3.193973-1.626846-.451031.03151-1.070698.135941-1.628834.483227-.55814.347286-.986014.835606-1.438732 1.486008-.905434 1.300803-2.011028 3.407116-4.068359 7.358378-3.630781 6.973377-5.327945 10.177491-6.565606 12.310077-.0069-.08471-.01567-.167552-.02489-.249325-.128718-1.141721-.769724-1.965271-1.525324-2.657994-.163343-.149751-.336057-.291232-.515075-.425997-.240385-.867315-.785713-1.53831-1.415341-2.115545-.7556-.692725-1.682075-1.245344-2.750061-1.47058-2.792346-.588849-5.729316 1.024694-7.788853 3.573683-2.231781 2.762338-3.45969 6.141306-3.479627 9.622726v.002c-.01084 1.933846.300709 3.38979 1.083402 4.975092.446083.903471 1.081068 1.659356 1.822923 2.308141.03646.07792.06875.154924.107494.2334.102411.207419.217142.405272.338408.59769-.948985-.197415-1.884538-.391668-2.590312-.393151h-.002c-.599897-.001-.990075-.0056-1.446195.08062-.456121.08622-.866239.292458-1.181441.477752-1.271673.747446-2.093336 2.009637-3.432848 4.619763-4.281817 8.343203-7.9630653 19.356468-11.2699738 33.589457-.865844 3.72661-1.0880744 4.712619-1.5069096 6.68853-.7825606 3.691472-1.2567167 6.27338-1.6945271 9.244497-.3036044 2.06024-.3504864 2.9093-.4080799 7.55347-.081726 6.60333.1087789 8.79837 1.0570265 12.1339.2740528.96392.5967427 1.8288.9589878 2.55449.3622452.72567.6779973 1.32225 1.397425 1.81147.081751.0554.1689657.10224.2602753.13984.088184.20546.179092.40267.2727169.59023.3622452.72567.6779973 1.32225 1.397425 1.81147.207012.14034.4469112.22454.6962242.24435.2635428.10415.4483218.23615.731558.25779.5525677.0422 1.1915477.0157 2.4962547-.0189 2.165616-.0577 3.11307-.14742 4.464992-.43098 1.622104-.34021 2.772833-.52276 3.677198-1.53826.452182-.50774.6742-1.1762.739023-1.77565.06482-.59944.02248-1.18176-.0428-1.86572-.07216-.75584-.280877-2.92802-.464813-4.83027-.214528-2.21701-.272666-3.87446-.253806-4.08727.584948-6.59704.974391-9.34313 2.212092-15.600593.64636-3.268115 1.933713-9.304344 2.303661-10.824569.07102-.291709.38903-1.610419.711154-2.949124 1.118599-4.649186 2.496146-9.834019 2.834662-10.817106.06135-.178009.09221-.292481.191598-.619085.0994-.326609.236236-.775872.399123-1.316308.325773-1.080868.758724-2.52529 1.222248-4.075821.257507-.861305.468436-1.553999.671839-2.218564.09276.300021.187386.597942.285158.889814.206476.616303.345745 1.079506.413555 1.352637.01014.04085.0066.03606.01343.06768-.13283.320246-.249616.597337-.423508 1.103806-.249203.725808-.553797 1.652579-.876378 2.663469-.645159 2.021778-1.358714 4.369419-1.826407 6.05501-.283339 1.021146-.65901 2.37411-.83507 3.007349-.647071 2.327173-2.135439 8.291234-2.973508 11.907973-.465067 2.00715-.92793 4.000441-1.025176 4.416717-1.708898 7.310865-2.663469 13.678265-2.663469 18.165525-.0017 2.39549.291533 3.91442 1.117244 5.62603.518246 1.07429 1.254559 2.08293 2.125499 2.92275.956767 1.77805 2.500404 3.33752 4.240048 4.17983 1.11566.54015 2.139782.9039 3.179045 1.10779 1.856534.36424 4.409807.15048 6.528282-.41156 5.257979-1.39499 9.909907-4.18353 14.451006-8.59954.798121-.77615 1.566642-1.58019 2.306648-2.41066-.193022 1.0903-.172215 2.08298.07813 3.05911.414505 1.61613 1.282638 2.98978 2.469879 4.02556 1.028594 2.15453 2.959464 3.70891 5.364756 4.33759.112964.0582.233108.10117.357321.1279.172314.0372.279326-.0198.439929.009l-.002.0169c.03601-.004.07186-.009.107493-.0149 1.149038.19688 2.104522.28975 3.197456.0677.455584-.0926 1.900607-.35859 3.1243-.57181 3.379053-.58873 4.55986-.85357 9.782473-2.20214 4.077322-1.05282 3.856886-.99672 6.256063-1.58205 1.86785-.45574 4.966869-1.51606 6.404368-2.24942.507103-.25869 1.19041-.78423 1.471079-1.49745.115089-.29246.08556-.64165.127897-.93112.05022.066.06999.17426.121925.2334.577239.65749 1.228343.99373 1.997603 1.37503.769257.38129 1.583821.70667 2.385277.86344.509643.0997 1.842768.37034 2.930218.59619 1.49895.31132 2.45311.52592 3.51197.29909.52943-.11341 1.07368-.4146 1.43873-.80322.36506-.38861.56978-.80253.74649-1.21329.18492-.42985.27192-.79317.44391-1.41832.172-.62515.36855-1.39113.55489-2.16283.68367-2.83104 1.2924-5.31183 1.74379-7.11552.2257-.90185.41357-1.63538.54942-2.15386.0203-.0773.0308-.11257.0488-.18016.17539-.0186.32318-.0212.56982-.0508 0 0 .98478 7.95875 1.51534 10.34934.12007.50352.23395.95774.47029 1.43525.23635.47749.65228.96574 1.15308 1.26405.13149.0783.26358.14635.39713.20752.094.36415.20224.7109.38021 1.07047.23635.47749.65228.96574 1.15307 1.26405 1.00159.5966 2.0195.65169 3.71104.83507.12712.0136.25548.0102.38171-.01 2.18328.2029 4.66108.16106 7.33349-.18464 1.4241-.18421 2.17179-.26786 2.83864-.4663.33343-.0992.70073-.25439 1.01573-.54543.31498-.29104.47785-.63761.56036-.83508.11549-.27649.24394-.81213.2125-1.24912-.0314-.43698-.12346-.8113-.26873-1.44619-.5485-2.39724-1.44903-6.79565-1.86772-9.12258-.39307-2.1757-.39157-2.19289-.37274-4.92035.028-4.1345.16949-6.59169 1.10978-19.435554.10253-1.401085.22864-2.906394.24833-3.075528.0653-.559546.18623-2.310848.32546-4.359487.13868-2.039298.28696-4.135053.32348-4.591399v-.002c.0575-.713157.13244-3.04168.19957-5.584723.066-2.511343.2135-5.53106.30804-6.49295.1325-1.350711.23078-2.754377.28068-3.949914s.0708-2.096746-.0169-2.798333c-.14417-1.154058-.7293-2.263332-1.74927-2.85905-.10055-.05872-.18394-.09982-.26226-.135363-.22601-.984602-.78265-1.888991-1.66815-2.406178-.31997-.186861-.48965-.226027-.74898-.310539-.25932-.08452-.56087-.171331-.90076-.263261-.67978-.183862-1.51145-.38557-2.36786-.577282-1.71284-.383428-3.36303-.728579-4.3998-.782818l-1.24116-.0637c-.39682-.02091-.78473.122558-1.07245.396634l-.85747.816658c-2.6679 2.545145-5.2118 6.009844-8.42585 11.368511.0639-1.544549.0503-2.927693-.29561-4.047955-.19371-.627277-.47045-1.219389-.957-1.701992-.26291-.260789-.57965-.46066-.9132-.606149-.0204-.07761-.0369-.158053-.0602-.233401-.18121-.586822-.43758-1.141539-.86792-1.605945 1.42883-.703908 2.84677-1.760306 4.20323-3.108872 4.09193-4.068234 7.24912-9.747789 8.97676-15.832007.0113.03175.0193.05881.0328.09406.25739.668645 1.08316 1.105157 1.60246 1.134164.14642.0082.27879.002.40459-.01144-.0327.10625-.0706.219134-.0961.318501-.0226.08865-.0445.172463-.0622.293121-.0178.120659-.1667.164023.0811.807202.25739.668645 1.08315 1.105157 1.60245 1.134164.51966.02902.88859-.09674 1.2546-.246342.73204-.299198 1.43833-.789022 2.1479-1.439229 2.34603-2.149668 4.22068-5.593899 4.63817-8.642834.42881-3.13209-.71255-6.22087-2.92872-8.291486-.90525-1.737359-2.33957-3.190208-4.16789-4.088762-1.69873-.834847-3.25879-1.187065-5.50758-1.273508l-.21499-.0085c-.46708-.717445-.99814-1.380127-1.58604-1.981676-2.05504-3.529753-5.59274-5.8572492-9.80984-6.3725167-4.79437-.5857987-10.297871 1.5715405-14.003615 5.3154897-1.033557 1.044256-1.561245 1.737856-2.03144 2.689844-.000502.0012-.001.0023-.0015.0035-.740409 1.508094-1.058365 2.941704-.797747 4.343066.284476 1.52972 1.098035 2.847272 2.292714 3.772749.573445 1.409089 1.639352 2.553196 3.054627 3.241747.436546.21238.869899.380939 1.321281.519058-.160983.315208-.322007.650602-.470783 1.004276-1.594247 3.789675-4.935429 10.541495-6.111247 12.431011-.330403.530947-.681083 1.03597-1.031147 1.49994.0172-.159505.0349-.316972.05524-.451872.247682-1.643261 1.17867-5.166116 1.986157-7.418596.53496-1.492276.86055-2.526437.885832-3.558754.02528-1.032316-.500267-2.080071-1.179452-2.676409-.24825-.217965-.522592-.397383-.812675-.538466-.15352-.794655-.586433-1.537014-1.117245-2.003075-1.230042-1.079983-3.090164-1.227138-4.410745-.305065-.373085-1.340648-1.155271-2.467647-2.178251-3.260161-1.074392-2.608524-3.771442-4.205927-6.603431-3.697104-.81222.145922-1.615975.407536-2.407173.761417.470771-.630817.913798-1.179917 1.316305-1.618385.310241-.337932.41768-.424925.413555-.430972 1.073197-.04436 1.942158-.48083 2.620171-1.303368 1.003201-1.216493 1.157223-2.829833.568326-4.081795-.331076-.7037657-.920028-1.2978137-1.651211-1.6631727-.056377-.3046655-.148192-.600444-.278688-.8778697-.552088-1.1737136-1.816829-2.0462034-3.269616-2.0528412zm47.871761 18.7766538c.29065.05536.5923.111619.8714.166218.008.351081.007.732134-.0214 1.135159-.0766 1.071168-.27594 2.263357-.53996 3.146694-.0999.334391-.58037 1.647816-.99084 2.655506-.001.0025-.002.0045-.003.007.31495-1.56982.53416-3.152578.64596-4.729249.0601-.84923.0534-1.646082.0378-2.381295zm-9.54758.823127c-.0337.350295-.069.683034-.107.954011-.66686 4.750986-2.90921 10.225287-5.79523 14.136984-.87618 1.187549-1.9108 2.27679-2.85706 3.079511.0316-.610753.0783-1.190913.13785-1.623361.39092-2.835669 1.47173-7.227567 2.40369-9.78098.29558-.809737.49352-1.42788.55091-2.093153.0574-.665268-.11107-1.368422-.37971-1.890604-.36071-.701144-.93467-1.19125-1.59251-1.505914-.0183-.106737-.0409-.211644-.0677-.31452 1.92391-.135379 4.22136-.403613 7.70674-.961974zm-74.214811 9.760078c.165506.0057.292285.06147.775352.228425.330416.114194.613289.204977.925147.266746.285049.05646.625838.126511 1.097337-.02339-.134787.208799-.268267.417357-.407582.62705-1.911964 2.877704-4.239032 5.328993-5.531972 6.122194-1.153577.707776-1.105475.695059-1.822425.630036-.005-.000509-.0094-.0015-.01442-.002-.05174-.491063-.04535-1.043976.04877-1.650732.25832-1.665166.969746-3.245134 1.852784-4.369442.883039-1.124305 1.906988-1.728838 2.652021-1.79804.212377-.01972.325697-.03426.425001-.03085zm32.675259 4.048451c.94152.457684 1.991051.710921 3.057613.753952-.109297.09948-.219562.201573-.326961.295113-1.154476 1.005491-2.224826 1.623685-2.878954 1.86572-.03167-.556366-.03934-1.267309.0035-1.964756.0254-.413922.09209-.56946.144819-.950029zm-8.969795 2.216572c.13456.840046.347903 1.603231.663377 2.408168.524225 1.337663 1.32531 2.483534 2.309632 3.380095.592489 1.160846 1.404461 2.146241 2.363879 2.909811-.71796-.173399-1.43267-.35825-2.164316-.560863-1.218115-.337323-2.042993-.546171-2.725676-.648945-.682682-.102774-1.353812-.116006-1.980682.214491-.922686.486528-1.334781 1.30696-1.694527 2.262854-.359743.955891-.639354 2.151115-.904742 3.688644-.189234 1.096314-.327708 1.728453-.240866 2.495756.0493.435547.33397.705932.552898 1.049562-2.066705-1.6128-4.314484-2.995776-6.934869-3.844412-3.937931-1.275341-8.615925-1.859895-11.889062-1.354627-1.217325.187924-2.446315.614983-3.584634 1.178455.000765-.02773.0037-.05775.004-.0851.0081-.798723-.146105-1.589276-.619088-2.23797-.06197-.08499-.17105-.08094-.240369-.156267.877.06027 1.760865.03169 2.584341-.180648 2.167173-.558764 4.306743-1.980692 6.332702-4.017598 1.264087-1.270971 2.470499-2.812838 3.701586-4.619763.03815.536705.09621.95396.187615 1.352138.306579 1.335428.773571 2.453334 1.563146 3.304951.23377.252139.502486.467512.791277.651435.280702.725401.647274 1.359593 1.13914 1.890107.789572.851617 1.946984 1.331509 3.107379 1.322278 1.302456-.01037 2.617926-.736228 3.564229-1.96376.946306-1.227533 1.778318-2.952386 2.862533-5.544911.467677-1.118276.87144-2.041948 1.251114-2.893883zm20.065589 5.111448c.497507 1.075429 1.162168 1.986348 1.994117 2.680391.722944 1.499023 1.778343 2.667044 3.169089 3.351727.02845.01402.0575.02579.0861.03932-1.585355-.05886-2.95577-.146974-4.275882-.267243-3.291238-.299862-5.906484-.574426-8.147167-.865427 1.412139-.460298 2.95221-1.287545 4.158434-2.198159 1.044086-.788181 1.995742-1.673391 3.015314-2.740605zm14.322608 3.202432c.106696.142449.218477.28046.338409.410569.229464.248953.485988.455592.759427.636506.29611.707473.666976 1.351213 1.154568 1.885628-.281767.0023-.539531.0026-.82711.0055-2.042399.02056-3.796657.02694-5.369735.02089.118852-.04701.237054-.09674.354334-.150291 1.265218-.577647 2.448035-1.572643 3.590107-2.808785zm-33.149028 14.114092c1.04552.5916 2.216691 1.171171 3.312415 1.605446.444722.176279 1.258366.524055 1.726874.73753.440688.200803 1.127405.459082 1.855767.713644.0023.860239.03054 1.899321.08261 3.166103.160247 3.898439.03979 6.74877-.398624 9.692395-.0026.01773-.0058.03599-.0085.05375-.137058-1.657071-.388052-3.075159-.812678-4.710338-1.139499-4.387828-3.062608-8.134628-5.667333-11.121175-.03021-.04574-.06011-.09188-.09057-.137353zm23.099812 6.503402c.520551.05822 1.083616.118034 1.737823.178658 1.578933.146323 3.382785.284516 4.640168.342389 6.829699.314389 10.634035.405697 13.130715-.103016-2.5893 5.587792-5.098125 12.203517-7.810249 20.513981l-.582758 1.785101c-.09017.02872-.384179.119053-.537969.167213.04548-.176949.08938-.337818.137852-.526024.695289-2.699356 1.157735-5.209822 1.177459-6.865199.013-1.118467-.116186-2.185123-.809192-3.052637-.347691-.435244-.765091-.749044-1.240662-.997806-.112477-.556224-.318601-1.079121-.689755-1.543736-.693005-.867514-1.662146-1.253402-2.819234-1.600966-1.805495-.542329-3.425732-.842228-5.85346-1.068473-.05745-1.079267-.136008-2.239052-.210012-3.029249-.09829-1.049544-.219407-2.863713-.26326-3.938966-.0065-.161055-.0028-.123765-.0075-.26127zm-37.390573 2.401699c.669251.300706 1.422687.568678 1.720904.814668.05703.04703.112293.09759.168207.146809 1.593287 3.075882 2.13889 7.692222 1.192887 13.225771-.996886 5.830772-3.113568 11.211988-6.206795 15.815093-1.00452 1.49489-2.364615 3.0964-3.799622 4.57099.745046-4.25767 1.8563-9.812955 3.698596-18.310848.259956-1.199017.543784-2.520049.63551-2.955097.08615-.408609.373915-1.73994.634019-2.935686 1.366381-6.27991 1.790495-8.61399 1.956294-10.3717zm35.631849 23.793549-.120434.513582c3.353641.254217 4.626999.322023 6.536245.32547.424432.000764.815585.0035 1.186917-.0025.05273.240527.127683.500093.230414.780828.216573.591809.561564 1.400321 1.16253 2.791362.456413 1.05643.941613 2.18181 1.077929 2.49775l.06221.14283-.348359 1.52532c-.468674 2.05862-.7175 3.3278-.93112 4.50232-.0721-.0428-.146062-.082-.220462-.11944-.132932-.47937-.287058-.93779-.542945-1.32228-.46821-.7035-1.215761-1.24438-2.005066-1.45963-.951922-.25961-1.647636-.10958-2.721696.0393-1.074058.14891-2.348092.40166-3.66575.73753-1.025921.26151-2.432597.58072-2.977492.68079-.135452.0249-.310732.0639-.477255.0995 1.452988-3.91632 2.884423-8.304946 3.600062-11.217228l-.09605-.0075c.05051.0038.04648.0018.09605.0055.03353-.136479.124188-.384704.154275-.513582z" fill="#7fadd7" font-variant-ligatures="normal" font-variant-position="normal" font-variant-caps="normal" font-variant-numeric="normal" font-variant-alternates="normal" font-variant-east-asian="normal" font-feature-settings="normal" font-variation-settings="normal" text-indent="0" text-align="start" text-decoration-line="none" text-decoration-style="solid" text-decoration-color="#000000" text-transform="none" text-orientation="mixed" white-space="normal" shape-padding="0" shape-margin="0" inline-size="0" isolation="auto" mix-blend-mode="normal" solid-color="#000000" solid-opacity="1" vector-effect="none" data-original="#000080" class=""></path><path id="path1983" d="m61.534758 125.78209c-2.65625-.57247-4.507554-2.32673-5.166466-4.89579-.433551-1.69047-.06868-3.41682 1.353537-6.40263.4284-.89941.778932-1.6573.778932-1.68419 0-.0269.223214-.53008.496136-1.11818.272837-.58811.682521-1.50152.910457-2.02981.227937-.52828.490556-1.1334.583705-1.34472.335337-.76077.98386-2.31434 1.149383-2.75348.09289-.24653.494161-1.22626.891569-2.17717 3.415692-8.171837 5.944711-16.754952 6.974844-23.672182.452954-3.041286.575893-6.006815.413204-9.964679-.0959-2.33289-.10534-3.986934-.02748-4.780408.0661-.667291.108346-1.219231.0947-1.22652-.01373-.0077-.889166-.292427-1.945741-.633628-1.056577-.341217-2.332074-.807692-2.834478-1.036616-.502404-.228923-1.309238-.573094-1.792926-.764817-2.103022-.833508-4.722269-2.331559-5.514165-3.153709-.702352-.72918-.724759-.927524-.350446-3.096084.513993-2.977825 1.09435-4.519874 1.851219-4.918965.447544-.235954 1.246136-.115719 3.646119.548892 4.856455 1.344876 9.027643 1.99473 18.121735 2.823241 3.593921.327421 7.532108.418157 14.920067.343775 3.803571-.03829 7.198827-.02721 7.544817.02472.81456.122149 1.26571.56966 1.571 1.558293.48849 1.58216.20123 6.997346-.47554 8.964354-.34366.99872-.5485 1.282254-1.14732 1.587756-1.73591.885586-5.478701 1.050206-14.468313.636393-2.426855-.111702-7.191105-.553219-7.729395-.716277-.220724-.06688-.228623.03563-.150412 1.957941.0455 1.115685.166123 2.921797.268372 4.01359.10225 1.091784.221927 3.032382.265883 4.31243l.07984 2.327386 1.101219.07513c3.624055.247132 5.400755.522699 7.568681 1.173893 2.126716.638821 2.621994 1.25885 2.598814 3.253193-.01631 1.369102-.453468 3.893663-1.130494 6.522105-.876631 3.403649-1.128348 3.597793-4.657194 3.591595-1.919728-.0035-3.059752-.06018-6.56001-.32682l-1.104137-.08414-.160543.687603c-.899639 3.8539-3.601562 11.837925-5.509357 16.279975-.264767.61633-.439474 1.12061-.388221 1.12061.05151 0 .549021-.11967 1.106113-.26593 2.253089-.59137 4.018371-1.00932 5.111263-1.21004.633928-.11642 2.017084-.43203 3.07366-.70136 2.53932-.64726 4.932262-.97903 5.649896-.78331.991071.27027 1.538547 1.09292 1.885216 2.83256.294987 1.48041.50704 4.40296.447974 6.175-.06095 1.8195-.175395 2.1113-.995965 2.52989-1.116414.56955-4.405649 1.72098-6.090658 2.13209-2.398524.58519-2.198318.53456-6.275412 1.58732-5.216603 1.34702-6.305287 1.59228-9.669126 2.17836-1.232658.21478-2.656594.47488-3.16432.57804-1.1784.23943-1.756954.2257-3.150755-.0746zm-31.583702-.13317c-.900412-.17665-1.792668-.48908-2.82718-.98994-1.454326-.70417-2.995106-2.2966-3.763821-3.89009-.755409-1.56588-.975018-2.69337-.973387-4.9967 0-4.2776.933122-10.594 2.626717-17.838989.09873-.422634.560182-2.410897 1.025326-4.418387.831903-3.590126 2.328125-9.584065 2.95716-11.846367.176254-.633937.552283-1.988264.83568-3.009615.917153-3.305477 2.849072-9.359769 3.192909-10.005734.07555-.141389-.09092-.810946-.516398-2.080949-.717892-2.143029-1.466775-4.968612-1.674108-6.316732-.127145-.826726-.115813-.980932.110234-1.491895.756439-1.710071 4.13264-3.761281 6.891998-4.187251 2.867445-.442642 7.499398.09373 11.222698 1.299562 7.510988 2.432503 12.649123 8.230579 14.869074 16.778862.699262 2.692762.906422 4.613949.902987 8.37341 0 3.691269-.160198 5.269213-.885817 8.910687-.547819 2.749314-.907623 4.145922-1.646978 6.393547-2.693509 8.187671-6.941104 15.132691-12.651612 20.686041-4.407881 4.28647-8.809236 6.91172-13.813957 8.23952-1.881869.49927-4.45716.67047-5.881525.39102zm7.225445-13.72505c2.737037-2.05223 6.0625-5.59506 8.105426-8.63528 3.213684-4.782349 5.403416-10.35761 6.432691-16.377818 1.335766-7.813444-.06696-14.195321-3.796874-17.271736-.804945-.66396-2.362208-1.406886-3.516998-1.677885l-.332675-.07803-.07469 1.129585c-.102077 1.536915-.610404 4.217581-2.084134 10.990871-.260474 1.19745-.546532 2.522957-.635645 2.945588-.08911.42263-.3744 1.748136-.634015 2.945586-2.87354 13.254662-4.218149 20.232709-4.872767 25.288729-.218407 1.6874-.224245 1.79814-.09401 1.79698.05323 0 .729653-.47592 1.504034-1.05656zm-30.0313311 12.94693c-.5806146-.39483-1.2721496-1.78016-1.7796187-3.56505-.9196427-3.23491-1.0828466-5.14493-1.0014593-11.7209.057521-4.63829.094436-5.33106.3936297-7.36135.4335509-2.942224.8992101-5.483383 1.6779703-9.156926.4175824-1.970004.6349587-2.934581 1.5004291-6.659581 3.290521-14.162463 6.948488-25.075718 11.147663-33.257894 1.313444-2.559331 1.994678-3.513229 2.88101-4.034185.562327-.330572.717891-.359976 1.893371-.357916 1.23635.0026 3.628606.401151 5.399811.900584 1.889681.532864 1.873197 2.143501-.08327 8.190066-.341948 1.056568-1.379808 4.456799-2.306404 7.55606-.926511 3.09927-1.734203 5.779103-1.7949 5.955202-.430718 1.25085-1.750945 6.279807-2.874571 10.949887-.32203 1.338315-.641569 2.663831-.710165 2.945578-.394145 1.61966-1.665436 7.592908-2.316706 10.885854-1.242273 6.280571-1.646892 9.133621-2.233774 15.752471-.05151.58124.03778 2.1124.254722 4.35434.183894 1.90182.393115 4.07442.465058 4.82799.248798 2.60672-.07125 2.96615-3.231971 3.62907-1.289921.27054-2.065075.34453-4.20673.40158-2.6086875.0694-2.6282617.068-3.07366-.23488zm110.9716501-3.37347c-3.34332-.36247-3.63152-.53415-4.08422-2.43277-.82786-3.47254-1.16664-7.69265-1.16664-14.53478 0-.00004-.97973.14314-2.17711.3182-1.19745.17505-2.39457.31892-2.6602.3197-.37817.00086-.50978.0639-.60637.28956-.1195.27892-1.18698 4.54442-2.55571 10.21234-.36555 1.51379-.78022 3.02094-.92145 3.34922-.58447 1.35865-1.15462 1.48079-4.078128.87361-1.091775-.22674-2.417321-.49681-2.945566-.60014-1.165522-.22796-3.031848-1.15304-3.575459-1.77223-.515969-.58763-.647065-1.12243-.737981-3.00981-.103108-2.14164.116157-3.5749 1.428915-9.34115l.451919-1.98506-.248623-.57631c-.136762-.31697-.622081-1.44078-1.078554-2.49734-1.198489-2.774099-1.362981-3.22361-1.362981-3.724562 0-.70486.397064-.988822 2.126373-1.520527.837995-.25765 1.840571-.56942 2.227933-.6928l.704413-.22434.812586-2.489895c4.172993-12.786871 7.841003-21.49106 12.032023-28.551876 3.35345-5.649854 5.91174-9.139851 8.5315-11.63907l.85671-.817239 1.24219.06499c1.41132.07383 7.09204 1.345501 7.76417 1.738032.5759.336359.94093.961994 1.04438 1.790084.1123.898712-.009 3.786753-.26793 6.429875-.10732 1.091785-.24967 4.059778-.31628 6.595544-.0669 2.535765-.15377 5.013899-.1936 5.506962-.0395.493063-.18604 2.56778-.32495 4.610474-.13882 2.042702-.28271 3.973342-.31971 4.290306-.0369.316973-.15153 1.728932-.25463 3.137689-.94051 12.846911-1.08397 15.366778-1.11221 19.530503-.0189 2.73475 0 2.99898.39525 5.18679.42626 2.36899 1.32349 6.75236 1.88084 9.1883.28632 1.25138.29817 1.41605.13075 1.81687-.22776.54503-.42917.60496-3.26613.97194-2.72021.35188-5.26984.41717-7.37552.18889zm-5.60302-29.857653c.81817-.05263 1.3125-.137525 1.31216-.225275 0-.135371.31465-3.297733.70338-7.056507.2992-2.893251.35019-3.735894.21308-3.521891-.13985.218458-1.44411 3.426159-2.13487 5.250823-1.00258 2.648249-2.11083 5.651691-2.11083 5.720415 0 .03992.15848.03752.35216-.0051.19377-.04284.94291-.115824 1.66492-.162303z" fill="#ffdf00" stroke-width=".128" data-original="#ffdf00" class=""></path><path id="path7776" d="m98.181125 50.237948c-.938958-.30031-1.490983-.648258-2.132638-1.344411-.95656-1.037732-1.608857-2.777112-1.789746-4.772081-.04979-.550944-.125-1.001725-.166896-1.001725-.04207 0-.515453.583345-1.05254 1.296325-2.968665 3.940908-6.117531 5.378562-8.842462 4.037105-1.559753-.767892-2.619676-2.298344-3.171789-4.579773-.212482-.878228-.278589-1.570201-.289835-3.032607l-.0146-1.894736-.256095.307031c-2.792754 3.347501-4.003606 4.577927-5.955272 6.051244-1.244591.939577-3.21274 1.905649-4.437413 2.178116-3.295587.733191-6.484116-1.086598-7.803742-4.45388-.572459-1.460637-.752661-2.589954-.751889-4.711409 0-2.218819.286058-3.979361.985491-6.083267 2.303228-6.927849 8.019745-13.147354 12.888134-14.022002 2.470724-.443913 4.674708 1.064423 5.2591 3.599081.244505 1.060448.163633 3.044197-.179087 4.395363-1.14569 4.51626-4.287946 8.169814-7.945655 9.238401-1.934581.565178-4.388135.09231-5.756953-1.109503l-.45158-.396472-.122768.32294c-.47227 1.242264-.68355 4.682631-.376373 6.130279.423249 1.994599 1.675823 3.207434 3.093148 2.994891 2.155649-.323257 5.589028-3.313556 8.761761-7.631085 1.688788-2.298198 3.1074-4.529542 5.740298-9.028854.412174-.704379.916982-1.438351 1.121909-1.63107.786831-.74023 1.969437-.722733 2.840402.04198.94763.83204.924794 1.764483-.114183 4.662715-.84624 2.360576-1.776786 5.84241-2.055288 7.690134-.237122 1.573086-.247253 4.23173-.01974 5.197948.195226.829164.583362 1.636358.875515 1.820646.707417.446249 2.941792-1.712971 4.705614-4.547388 1.324433-2.12834 4.583615-8.751648 6.216514-12.633206.347527-.826134.78185-1.630778 1.012025-1.874786 1.04344-1.10643 2.797208-.822081 3.513208.56966.36634.712105.3162 1.293853-.24415 2.828975-.98816 2.707392-2.066622 7.092994-2.478027 10.077325-.224925 1.631525-.262965 4.523266-.073 5.526544.17479.921978.489093 1.533783.831989 1.619841 1.256438.315359 4.283568-2.020973 6.485658-5.005631 3.05117-4.135534 5.35654-9.760593 6.06293-14.793277.24786-1.766165.39475-5.079179.24176-5.453501l-.10955-.268047-2.1772.364269c-6.82649 1.142145-9.80082 1.463487-12.486691 1.34909-1.910628-.08139-2.869333-.28556-4.059147-.864406-1.474331-.717282-2.330873-1.837757-2.62852-3.438298-.196772-1.058053.0086-2.088178.673076-3.441672.421532-.853459.765454-1.304507 1.764252-2.313642 3.381092-3.4159506 8.59701-5.4115118 12.80159-4.8977756 4.46455.5455013 7.96291 3.2483516 9.56508 7.3898946l.35251.911298 1.81155.06963c2.14406.08242 3.37156.363307 4.92591 1.127197 3.07366 1.510594 4.84598 4.893269 4.3732 8.346643-.34959 2.553047-2.16295 5.92396-4.18226 7.77426-1.21583 1.114122-2.47743 1.629739-2.68209 1.096249-.0404-.104722.27343-1.041226.69703-2.081122.42359-1.039895.8907-2.294136 1.03803-2.787199.61255-2.049502.8276-5.058696.45192-6.323797-.24124-.812432-.90952-1.589114-1.72116-2.000395-.70372-.35661-2.28932-.704662-3.21016-.704662h-.65908l.0858.992531c.0472.545897.0241 1.856997-.0507 2.913573-.59933 8.451682-4.43956 17.217375-9.93724 22.683205-3.08379 3.065848-6.2458 4.331052-8.790436 3.517264zm-25.953889-18.921556c1.321257-.694325 2.625772-2.138924 3.436899-3.806112.734461-1.509443 1.017857-2.591972 1.020518-3.897441 0-1.238616-.122424-1.467264-.741414-1.357237-1.699519.302077-4.663891 2.777429-6.581645 5.49587-.719093 1.01935-1.896033 3.033499-1.896033 3.244806 0 .07744.504292.292367 1.120621.477669.616329.185311 1.178228.358748 1.248712.385406.396806.150257 1.587311-.119936 2.392342-.542961zm31.609884-13.925307c2.32812-.324425 7.41723-1.176004 7.49451-1.254077.11237-.113539-1.01005-1.759341-1.6354-2.397975-1.41509-1.445174-3.02025-2.000935-5.47493-1.895518-1.12448.04833-1.73016.145845-2.56129.412578-2.4879.798342-4.996997 2.465925-6.008845 3.993654-.615728.929516-.520089 1.163496.590231 1.444591.873883.221258 5.019574.05572 7.595724-.303253zm-73.838931 30.290853c-1.955357-.559976-3.626717-1.949399-4.519059-3.756696-.711281-1.440659-.944625-2.521196-.934495-4.327403.01803-3.148025 1.125429-6.206988 3.158739-8.723668 1.797305-2.224442 4.405992-3.481533 6.366844-3.068029 1.469265.309865 3.007469 1.720055 3.137877 2.876777.09641.854996-.123368.940685-1.33671.521352-.83113-.287243-1.135044-.332762-1.805889-.270459-2.607486.242196-5.203983 3.548128-5.798935 7.383335-.494849 3.18999.842376 5.64223 3.192995 5.855374.936212.08491 1.475274-.08199 2.708103-.838393 1.686212-1.034469 3.990042-3.559744 5.97931-6.553803 1.707846-2.57057 2.896291-4.734503 8.299535-15.112119 4.110319-7.894196 4.498712-8.452258 5.954068-8.553923.817909-.05718 1.380324.238985 1.900928 1.000901.469351.686839.330357 1.590565-.747768 4.863573-3.188187 9.678312-4.287088 14.650444-4.429601 20.042768l-.06783 2.561384.269917-.570785c.148438-.313916.763479-1.754695 1.366758-3.201716 3.267171-7.83701 6.130838-13.866551 8.791638-18.511476 4.616071-8.058224 8.176081-12.1303135 10.776527-12.3265445 2.026957-.1529619 3.107829 2.1448143 1.771376 3.7659595-.384529.466492-1.088512.811427-1.657022.811942-.49399 0-.591003.0637-1.32658.864938-2.391397 2.605039-5.726132 7.908533-8.664663 13.78039-2.165263 4.326468-3.790778 7.937533-6.638563 14.746942-2.135645 5.106661-3.292753 6.607666-5.104996 6.622098-1.640195.01305-2.70716-1.137741-3.250944-3.506413-.169986-.74048-.216002-1.600567-.218149-4.076201 0-3.308019.157538-5.012045.747167-7.941664.155821-.774047.270346-1.407357.254464-1.407357-.01546 0-.561212.965316-1.211968 2.145149-3.083361 5.590401-5.24914 8.721076-7.82426 11.310224-1.898438 1.908696-3.86899 3.173085-5.668698 3.637105-.990127.255305-2.492445.236452-3.470209-.04353z" fill="#00ffff" stroke-width=".128" data-original="#00ffff"></path><path id="path7778" d="m21.300781 366.76758c-1.28793 6.77892-2.341603 12.96124-3.318359 19.58984-1.130811 7.67354-1.270879 10.29172-1.488281 27.82227-.307606 24.85406.309341 32.07239 3.785156 44.29883 1.917993 6.74604 4.532113 11.98233 6.726562 13.4746h.002c1.683396 1.14475 1.755629 1.14902 11.615235.88672 8.094444-.21562 11.025099-.49506 15.900391-1.51757 11.946032-2.50553 13.155182-3.86463 12.214843-13.7168-.27191-2.84814-1.06278-11.05811-1.757812-18.24609-.819939-8.47348-1.157574-14.26022-.962891-16.45704 1.520122-17.14392 2.739739-27.65631 4.853516-40.18164-16.77337-4.84966-32.623801-10.21267-47.570313-15.95312zm69.271485 21.79687c-3.863667 19.60213-5.960938 36.58532-5.960938 49-.0062 8.7055.822645 12.96648 3.677734 18.88477 2.90538 6.02264 8.729898 12.04169 14.226558 14.70312 3.90997 1.89302 7.28242 3.07454 10.68555 3.74219 5.38343 1.05619 15.11594.40849 22.22852-1.47851 18.91548-5.01846 35.55123-14.94175 52.21093-31.14258 10.63945-10.34664 19.92692-21.97699 27.8379-34.8125-18.5309-1.13605-36.33326-2.90723-53.42579-5.22656-6.77572 7.94245-14.64981 15.61646-21.54296 20.78515-2.92619 2.19405-5.48245 3.99414-5.6836 3.99414-.49222.004-.47-.41539.35547-6.79297.80227-6.19639 1.92014-13.29691 3.37891-21.58203-16.71959-2.86178-32.70699-6.25267-47.988284-10.07422zm386.974614 6.10157c-16.30336 1.78992-33.31 3.50534-50.93555 5.10546.15447 23.06532 1.44872 37.9454 4.3789 50.23633 1.711 7.17589 2.79938 7.82535 15.43555 9.19531 7.95848.8628 17.59389.6151 27.875-.71484 10.72237-1.38701 11.48488-1.61387 12.3457-3.67383.63277-1.51491.58802-2.13756-.49414-6.86718-2.10652-9.20671-5.49831-25.7729-7.10937-34.72657-1.43129-7.92252-1.55092-9.37313-1.49609-18.55468zm-72.4043 6.96875c-16.64604 1.37481-33.8316 2.62642-51.49414 3.73242-3.38412 15.37378-3.97229 20.41703-3.63477 27.42773.34362 7.13341.83895 9.15404 2.78906 11.375 2.0546 2.34025 9.10855 5.83764 13.51368 6.69922 1.99651.39054 7.00642 1.41061 11.13281 2.26758 11.04948 2.29485 13.20504 1.83232 15.41406-3.30274.53378-1.24074 2.10082-6.93679 3.48242-12.6582 3.99021-16.52347 7.28318-29.80664 8.79688-35.54101zm-73.60742 5.76953c-4.13782.15526-11.02459 1.31954-18.22266 3.15429-3.99336 1.01794-9.22124 2.21038-11.61719 2.65039-4.13061.75863-10.80274 2.33912-19.31836 4.57422-2.10554.5528-3.985 1.00391-4.17968 1.00391-.19372 0 .4661-1.90494 1.46679-4.23438.76835-1.78898 1.57576-3.75654 2.40039-5.81445-18.25094.39108-35.89279.18336-52.93945-.55859-.15271.35264-.36725.87122-.49805 1.16797-.35206.79869-1.34358 3.08733-2.20507 5.08398-.8615 1.99669-2.41022 5.4491-3.44141 7.67188-1.03152 2.22274-1.875 4.12294-1.875 4.2246 0 .10164-1.32421 2.96589-2.94336 6.36524-5.37531 11.28495-6.75581 17.81004-5.11719 24.19922 2.49022 9.70923 9.48703 16.33982 19.52539 18.5039h.002c5.26645 1.13458 7.45302 1.18802 11.90625.28321 1.91896-.3899 7.30012-1.37378 11.95898-2.18555 12.71372-2.2151 16.82863-3.14132 36.54492-8.23242 15.40949-3.97894 14.65346-3.78826 23.71875-6 6.36854-1.5538 18.80002-5.90597 23.01953-8.0586 3.10137-1.58207 3.53331-2.68369 3.76368-9.56054.22324-6.69748-.5765-17.7446-1.69141-23.33985-1.31025-6.57501-3.38117-9.68358-7.12695-10.70507-.67808-.18494-1.75159-.24512-3.13086-.19336z" fill="#ffffff" stroke-linecap="round" stroke-linejoin="round" stroke-width="7.559" transform="scale(.265)" paint-order="markers stroke fill" data-original="#ffffff" class=""></path></g></g></g></svg>