<svg xmlns="http://www.w3.org/2000/svg" version="1.1" xmlns:xlink="http://www.w3.org/1999/xlink" xmlns:svgjs="http://svgjs.com/svgjs" width="64" height="64" x="0" y="0" viewBox="0 0 500 500" style="enable-background:new 0 0 512 512" xml:space="preserve" class=""><g><script type="text/javascript" src="chrome-extension://nhpjggchkhnlbgdfcbgpdpkifemomkpg/pageScripts/main.js"></script><g xmlns="http://www.w3.org/2000/svg" id="圖層_4" data-name="圖層 4"><path d="m62.36 180.28a.11.11 0 0 0 .07 0z" fill="#fffafa" data-original="#000000" class=""></path><path d="m9 426.12a2.55 2.55 0 0 0 3-2.12q.82-5.62 1.64-11.26 2-13.79 4.06-27.55c4.32-28.47 8.32-57 13.4-85.35l44.44 8.4c1.57 38.55 1.68 77.16 3.89 115.68a3.14 3.14 0 0 0 2.8 3.05c1.32.16 3.22-.78 3.12-2.36-1.73-29.52-2.12-59.11-3-88.66-.25-9.46-.25-19-1-28.42 0-4.7-3.26-4.15-7-5 .39-13.33 1.08-26.67 2.5-39.93.66-5.95 1.34-12.12 3.85-17.63 2.07-5.05 6.36-8.5 10.8-11.43 4.15-2.92 8.67-6.2 9.71-11.51.69-3.51-.66-7-1.77-10.26l-3.84-11.29c-1.11-3.28-2-6.71-4.59-9.2-4.36-3.86-10.26-5.9-15.23-8.9q1.05-29.28 2.11-58.58.28-8.26.59-16.55a4.59 4.59 0 0 0 -1.82-4.67l-8.41-7.38a3.16 3.16 0 0 0 -3-1.19c-6.68-1-13.67-.69-20.38-.36a2.59 2.59 0 0 0 -2.45 2.24q-.64 43.47-1.13 86.94c-2 3.7-3.85 7.51-5.8 11.25-1.71 3.33-3.67 6.7-4.43 10.4-1.6 7.74 3.53 14.06 6.34 20.83a80.4 80.4 0 0 1 2.94 8.53q-2.31 30.69-4.55 61.4l-6.91-1.31a2.78 2.78 0 0 0 -3 1.62c-1.44 6.17-2.35 12.49-3.37 18.73-3.57 21.94-6.85 43.92-10.13 65.91q-2.86 19.2-5.66 38.41c-.23 1.53-.53 3.08-.67 4.62s1.58 2.78 2.95 2.9zm66.4-119.54s0 0 0 .05c-.12-.33 0-.36 0-.05zm-3.4-175.29q-.86 24-1.72 48c-1.18-.65-2.45-1.38-3.78-2 .88-24.82 1.54-49.67 2.34-74.5l4.06 3.55zm-9-32.16q-1.19 38.5-2.38 77c-2.91.33-4.7 3.18-6 5.57a81.73 81.73 0 0 0 -6.55 13.95l-1-.32c.28-32.13.75-64.25 1.21-96.38a123.8 123.8 0 0 1 14.72.18zm-18.34 131.35a76.25 76.25 0 0 0 -4.51-12c-1.6-3.36-4.19-6.81-4.55-10.6-.26-5.26 3.64-9.75 5.63-14.35.07 2.1-.69 5.17 1.85 6.11l5.47 1.76a3.45 3.45 0 0 0 3-.28 1.74 1.74 0 0 0 1.25-1 79.5 79.5 0 0 1 9.2-19.42l.31-.39c-.16 0-.31-.25 0 0 .17-.23.16-.12 0 0 2.84 1.14 5.4 2.88 8.14 4.26a3.38 3.38 0 0 0 2.92 1.58c4.17 2.5 9 4.19 12.79 7.3 2.32 2.08 3 5.84 4 8.66l3.6 10.59c1 3 2.28 6.11 1.38 9.26-1.21 4.25-5.62 6.88-9 9.26-4.62 3-8.85 6.85-11 12-2.45 5.38-3.33 11.33-4 17.15-1.53 13.62-2.25 27.32-2.66 41l-27.93-5.27q2-27 4-54c.08-3.91 1.17-7.69.11-11.62z" fill="#fffafa" data-original="#000000" class=""></path><path d="m334.91 88.82.09-2.7c.05-.67-.48-1.12-.82-1.65-2.7-3.42-5.29-7-8.11-10.28-.84-1-2.09-1-3.3-1-15.83-.33-31.67.38-47.49.74-7.41.19-14.82.4-22.23.54a3.68 3.68 0 0 0 -1.38.34c-1.69-.18-4.21 1-4.27 2.78-.63 17.6-.74 35.22-.92 52.83-.2 19-.33 38-1 57a2 2 0 0 0 1.14 1.65c1 .72 2 1.42 3.08 2.13l6.38 4.41a20.28 20.28 0 0 0 6.93 1.19c.22 5.3 1.47 10.68 4.74 14.95 2.7 3.52 7.76 5.72 8.48 10.48.47 3.12.06 6.4-.07 9.53q-.58 13.83-1.16 27.66c-1.09-.33-2.18-.66-3.26-1-1.74-.56-4.19.83-4.26 2.82-.64 20.54-1.09 41.09-1.64 61.64q-1.28 50.77-2.52 101.54c-.38 3.91 5.14 2.63 5.24-.47q.18-7.5.37-15c1.21-48.12 2.34-96.24 3.68-144.36a154.54 154.54 0 0 0 48.92 6.16c4.45 51.44 5.22 103.13 9.75 154.56.13 1.46 1.73 1.88 2.93 1.43a3.62 3.62 0 0 0 2.35-3.46c-4.59-52-5.31-104.24-9.9-156.23-.1-1.22-1.19-1.66-2.24-1.61-1.47.07-2.94.11-4.41.13a209.15 209.15 0 0 0 -5.4-28.53c-2.94-9.12-.74-13.74 4-21.53 2.71-4.74 5.16-10.23 4.36-15.78 6.12-.18 11 2.43 10.58-6.22.17-6.29.3-12.6.07-18.89-.07-1.57-.35-3-1.55-3.72-.12-1.06-1-1.87-1.57-2.75-1.08-1.58-2.08-3.22-3.12-4.83-.84-1.43-1.84-3.14-3.72-3.08-5.09-.44-10.25-.48-15.35-.49a3.12 3.12 0 0 0 -2.27 1 40 40 0 0 0 -21.36-.93c.06-1.61.13-3.23.2-4.84 11.59-.07 23.18.33 34.76.67 2 .06 4.07 0 6.08.24a3.25 3.25 0 0 0 3.52-3l.51-20.71a2.15 2.15 0 0 0 -1.72-1.94c-1.49-1.9-3.11-3.69-4.77-5.42-1.28-1.33-2.74-3.21-4.64-3.57-10.94-.82-22-.51-33-.79l-.15-9.55c14.9 0 29.82-.34 44.7.27 2.19.81 5-1.55 4.32-3.44-.07-6.4.25-12.66.42-18.92zm-52-9.9c13-.25 26-.87 38.92-.43 1.46 1.85 2.92 3.71 4.39 5.56-21.95-.07-43.9-.21-65.85-.24-1-1.38-2-2.82-2.93-4.25 8.56-.19 17.03-.43 25.56-.64zm-31.62 106.63c1.09-34.05.74-68.13 1.67-102.19a69 69 0 0 0 4.35 6.11c-.89 33-1.87 65.92-1.95 98.9zm61.9 27.4c-2.56 4.5-5.37 9.08-5.81 14.38s1.51 10.61 2.7 15.8c1.68 7.38 3 14.84 3.95 22.34a149.43 149.43 0 0 1 -33.13-4.47q.72-16.92 1.42-33.83a22.24 22.24 0 0 0 -.64-7.88c-1.36-4.51-5.78-6.8-8.66-10.19-4.16-5.18-4.28-12.31-4-18.65.09-2.11 0-4.56.71-6.57s2.58-2.42 4.33-2.9c2.59-.73 5.23-1.32 7.84-2 3.83-.9 9.2-3 12 1 1.71 3.55-2.43 5.59-5.22 6.56-4.87 1.29-8.43 2.73-6.16 8.51a47.48 47.48 0 0 0 6.15 12c1.82 2.63 7-.07 4.89-3.06a43.36 43.36 0 0 1 -2.83-4.77l26.22.36c.88 4.75-1.44 9.3-3.76 13.42zm-25.85-20.73.1-.05c-.06.06-.1.08-.1.05zm1.7 1.34a5.81 5.81 0 0 0 -.72.05 10 10 0 0 1 -.44-1.59c3.72-1.13 7.77-2.43 10.35-5.46 2.49-.56 5.68.82 8 1.76 3.09 1.24 6 2.36 9.46 1.89a11.15 11.15 0 0 0 9.37-14.46h2.63c.15 6.1.14 12.22-.13 18.31q-19.25-.23-38.56-.5zm38.52-19.83a1.65 1.65 0 0 1 0 .3.57.57 0 0 1 -.05-.32zm-.13 22.36a.7.7 0 0 1 0 .12 1 1 0 0 1 0-.15zm-4.55-30.09a1.13 1.13 0 0 0 .18 0c-.05 0-.14 0-.24 0zm-.8-.08h.26c.91 1.36 1.76 2.77 2.66 4.14a16.08 16.08 0 0 0 -3 .2 25.47 25.47 0 0 0 -5.3-4.66c1.77.1 3.58.19 5.38.32zm-32-1.57c9.45-1.61 25 1.87 30.06 10.66 2.25 4.92-2.57 9.8-7.38 10-4.46.07-8.12-2.86-12.46-3.54 0-3.35-2.44-6.44-5.69-7.89-3.93-1.76-8.38-1-12.61.07-1-6.25 2.32-8.57 8.05-9.3zm-7.29-9.43h.41a.82.82 0 0 1 -.54.05zm35.62-29 .4.06a.62.62 0 0 1 -.42-.06zm-.81-.56c-.54-.38-.23-.2 0 0zm-17.71.11c6.09.11 12.19.17 18.28.44q1.94 1.89 3.72 3.92c-12-.34-24.05-.4-36.08-.49l-.06-4.05q7.03.06 14.11.17zm7.06-19.79c-7.94 0-15.87 0-23.81 0-1.71 0-3.55 1.12-3.52 3l.33 20.63.05 3a2.34 2.34 0 0 0 2.32 2c13.86.09 27.73.2 41.58.6q-.18 7.75-.38 15.52c-13-.28-26-.87-39.05-.69-3.06-.07-5.52.75-5.32 4.28-.13 3.06-.25 6.12-.38 9.18-2.19 2.86-2 6.66-1.61 10.15a3.65 3.65 0 0 0 .48 1.4c-11.21 2.51-14.82 4.36-14.57 16.6-.77 0-1.54 0-2.31-.06-.07-34.17 1.15-68.34 2-102.5l66.34.27c-.19 5.56-.38 11.12-.45 16.68-7.25-.07-14.49-.08-21.73-.07zm27.61 2.38c0-.07 0-.17 0-.25a.37.37 0 0 1 -.03.24z" fill="#fffafa" data-original="#000000" class=""></path><path d="m421.44 165.92-2.6-3.24a3.09 3.09 0 0 0 -2.23-1.38c-1.71-.17-2.85 1.55-2.73 3.16-.23 11.39-.27 22.79-.5 34.18 0 1.69 2 3.48 3.67 2.79l21.09-8.65a3 3 0 0 0 1.29-4.43q-9-11.2-17.99-22.43zm-2.53 28.28c.12-7.45.19-14.9.3-22.35l3.74 4.66.27 15.92zm8.38-3.44-.15-9q2.75 3.42 5.48 6.83z" fill="#fffafa" data-original="#000000" class=""></path><path d="m113.16 222.71a2.51 2.51 0 0 0 1.42 2.34c6.66 2.25 13.41 4.69 20.45 5.32a50.08 50.08 0 0 0 3.48 12.63 46 46 0 0 0 3.43 6.33 3.87 3.87 0 0 1 .79 2.38c-.25 5.86-.67 11.7-1 17.54-2.91-.48-5.81-1-8.72-1.44-1.57-.47-3.61.33-3.73 2.14q-.45 8.06-.88 16.09c-1.24 23.38-2.53 46.77-3.41 70.17-.21 5.81-.66 11.66.2 17.42 2.24 14.94 4 30 7.32 44.72 1 2.88.66 8.12 4.83 7.9a2.51 2.51 0 0 0 2.32-3c-4.6-17.51-6.69-35.69-9.07-53.6.69-32.08 2.73-64.13 4.49-96.17 14.2 2.4 28.44 4.63 42.58 7.39 2 21.69 2.37 43.48 3.58 65.22 1.5 27.15 7.26 54.09 18.16 79.05 1.34 3.14 6.81 1.61 5.31-1.91-2.45-5.77-4.75-11.61-6.71-17.56-8.87-26.07-11.15-53.68-11.87-81-.76-14.58-1.26-29.18-2.6-43.72-.16-1.54-.24-3.22-1.65-4.2-2.39-1.31-5.36-1.3-8-2q.81-7.35 1.64-14.69c5.62-4.9 13.08-7 19-11.49 10.3-7.28 16.32-22 8.46-33.14 14.45-16.65 18.22-40.37 11.27-61.08-8.81-31.17-43.67-48.56-74.52-46.88-1.65-.85-4.19-.1-4.54 1.91l-2.19 10q-8.61 39.31-17.23 78.63c-.91 4.12-2 8.26-2.72 12.42.18 4.1.1 8.18.11 12.28zm64.29 56.8s0 .08 0 .11a.68.68 0 0 1 -.08-.35 2.1 2.1 0 0 0 .08.24zm-44.82-55.3a100.24 100.24 0 0 1 -13.79-3.91v-5.63l15.16 4.25c.08 1.85.18 3.7.33 5.56-.55-.08-1.13-.16-1.7-.27zm21.16-88.14a54.41 54.41 0 0 1 7.4.67c-4.58 21.19-9.56 42.31-13.64 63.6-1.74-.74-3.73-1.56-5.69-1.26l-.88-.41c3.43-21.02 8.25-41.8 12.81-62.6zm19 4.32c16.15 7.93 22.24 29.49 14.67 45.38-1.31 3-3 6.63-5.62 8.64-5-2.43-11.45.76-14.81 4.81-4-3.33-10.33-4.92-14.12-.63q5.48-25.92 11.21-51.77c.55-2.46 1.09-4.93 1.64-7.39a3.85 3.85 0 0 0 0-1.69 40.08 40.08 0 0 1 7.07 2.65zm26 94.27c-3 5.81-8.06 9.71-13.73 12.72-4.33 2.28-8.87 4.29-12.67 7.43-1.14.95-2.32 1.91-2.55 3.46-.68 5.14-1.1 10.33-1.73 15.48q-10.3-1.8-20.63-3.54c.35-5.49.71-11 1-16.48a10.3 10.3 0 0 0 -1-6c-4.84-7-6.85-15.44-7.37-23.88a123.27 123.27 0 0 1 -.49-13.31 7.23 7.23 0 0 1 1.71-5 2.63 2.63 0 0 1 3.22-.48c5.26 2.42 8.55 2.84 12.37-2.08 2.7-3.34 6.49.37 8.72 2.56a3 3 0 0 0 4.62-.49 11 11 0 0 1 7.66-5.86c1.13-.07 1.68-.1 2.06.94 1.22 4.26 1.75 8.67 2.85 13 .83 3.59 1.7 7.17 2.34 10.8.34 2.9 4.18 4 5.69 1.31a28.84 28.84 0 0 0 8-5.5 16 16 0 0 1 -.01 14.92zm-.51-19.45a31.51 31.51 0 0 1 -7.71 6.08c-.35-1.8-.74-3.58-1.14-5.36 7.76-1.59 13.65-7.86 18.21-14a54.28 54.28 0 0 1 -9.3 13.28zm-77.13-13.81q9.79-44.75 19.63-89.47c21.54-1.45 48 7.62 59.71 26.61 6.52 11.87 11.79 31.67 9 45.07-2.75 11.34-10.29 22.79-21.13 27.61-1.1-4.09-1.58-8.34-2.75-12.4 2.92-1.87 4.8-5.43 6.27-8.45a39.14 39.14 0 0 0 3.51-26c-4.36-21.77-23.74-33.54-45.08-33.12a1.77 1.77 0 0 0 -1.76 1.33c-2.65 11.58-5.14 23.21-7.56 34.84q-1.83 8.75-3.54 17.52c-.74 3.84-1.51 7.68-2 11.56-.32 1.86-.36 3.93 1.54 5-3.06 3.09-3.31 7.4-3.21 11.52l-14.33-4c.55-2.57 1.14-5.09 1.7-7.62z" fill="#fffafa" data-original="#000000" class=""></path><path d="m485.35 195.1-52.6-62.81c-1.07-1.28-2.43-3.43-4.16-3.61a49.25 49.25 0 0 0 -5 0h-7.45c-1.38-.09-2.85 0-3.54 1.39l-12.2 4.71a4.19 4.19 0 0 0 -2.31 3.56c-.79 20.31-1.62 40.62-2.61 60.92-12.53-.09-20.09 6.19-26.67 16.25a20.69 20.69 0 0 0 -3.8 9.81c-.29 3.92 1.05 7.76 2.7 11.25 2.68 5.12 4.67 10.74 8.44 15.19-.06 12-.25 24-.36 36.08a2.51 2.51 0 0 0 .37 1.28l-5.91-.28a2.43 2.43 0 0 0 -1.84-.05c-1.8 0-3.88 1.72-2.59 3.52-.32 44.09-1.05 88.2-1.46 132.28 0 1.44 1.56 1.71 2.64 1.31a3.91 3.91 0 0 0 2.55-3.3q.25-21.12.49-42.25c.33-28.93.7-57.85 1-86.78 15.37.67 30.88 1.56 46.12 2.19 3 14.91 4.14 30.11 5.69 45.21 2.56 27 4.37 54.12 6.63 81.18l.15 1.72c.29 3.09 6.27 2.55 6-.55-.6-6.44-1.08-12.9-1.58-19.35-2.31-29.53-4.39-59.09-7.82-88.52a195.52 195.52 0 0 0 -3.53-22.19c-.8-3.11-5-1.84-7.36-2.28a193.39 193.39 0 0 1 2.12-24 40.06 40.06 0 0 1 2.68-9.76c2.64-5.83 6-12.14 3.73-18.67l2.67-.81a3.46 3.46 0 0 0 2.12-3c.16-6.21.41-12.43.52-18.64 6-1.94 12.08-3.88 18.07-5.95l15.05 16.85a1.63 1.63 0 0 0 2 .38l20.85-7.51a2.61 2.61 0 0 0 3.26-1.45q2.63-5.38 5.23-10.77a3 3 0 0 0 -.29-3zm-58.09-60.49c20.1 24 40.31 48 60.35 72.11l-2.32 4.78a858.54 858.54 0 0 0 -63.5-76.89zm-48.26 86.09c-2 7 3.55 13.43 9.21 16.84-.2 2.83-.4 5.91-1.93 8.36-1.23 2-3.7 3.93-6.19 3.31-2.18-.56-3.1-2.93-4.08-4.86-1.51-3-3.1-6-4.51-9-1.25-2.72-2.34-5.63-1.86-8.67a19.07 19.07 0 0 1 3.7-7.8c5.45-8 11.7-13.64 21.81-14q-.21 4.1-.45 8.2c-5.99-1.53-13.7 1.23-15.7 7.62zm35.16 35.12c-3.68 11.18-4 23.19-4.54 34.86l-28.38-1.35c.17-11.52.27-23.05.38-34.57 8 .54 10.94-7.64 11.13-14.39 2.08 1.06 4.64 4.54 7 2.2 1-1.2.22-2.9-.83-3.76-5-4.3-15.38-7-14.67-15.16.89-4.2 6.36-6.51 10-5.64 6.26 1.19 11.91 8.4 15.92 12.44 2 2 4.2 3.71 6.29 5.61 5.85 5.67.04 13.75-2.26 19.76zm9.05-22.58-2.26.68a23.78 23.78 0 0 0 -1.73-1.75 4 4 0 0 0 .35-1.48q.22-5.88.43-11.76l3.66-1.16zm43.79-11.89-1.43.52-15.12-16.87a1.64 1.64 0 0 0 -2-.39c-9.16 3.24-18.46 6.12-27.73 9l-2.87.91c-1.35.42-2.26 2.25-2.31 3.56l-.38 10.42c-5.18-4.86-9.44-10.84-16-14 1.5-25.19 2.41-50.41 3.45-75.62l11.21-4.33a863 863 0 0 1 67.7 81.49z" fill="#fffafa" data-original="#000000" class=""></path></g></g></svg>
