<svg xmlns="http://www.w3.org/2000/svg" version="1.1" xmlns:xlink="http://www.w3.org/1999/xlink" xmlns:svgjs="http://svgjs.com/svgjs" width="512" height="512" x="0" y="0" viewBox="0 0 150 150" style="enable-background:new 0 0 512 512" xml:space="preserve" class=""><g><script type="text/javascript" src="chrome-extension://nhpjggchkhnlbgdfcbgpdpkifemomkpg/pageScripts/main.js"></script><path xmlns="http://www.w3.org/2000/svg" d="m136.721 74.521c.228-17.269-16.446-31.49-37.24-31.764-.91-.012-1.81.013-2.7.054-5.255-11.267-19.433-17.978-34.661-15.464-17.735 2.928-30.141 17.24-27.71 31.968a22.833 22.833 0 0 0 .625 2.724 34.848 34.848 0 0 0 -5.335 2.343c-14.031 7.618-20.279 23.231-13.956 34.882 5.47 10.08 18.557 13.873 31.073 9.786 4.085 9.958 15.333 17.214 28.7 17.391 15.557.2 28.5-9.243 30.688-21.676 17.22-2.675 30.317-15.12 30.516-30.244z" fill="#ffb900" data-original="#ffb900"></path><path xmlns="http://www.w3.org/2000/svg" d="m129.11 72.019c.209-15.9-15.144-29-34.294-29.251-.837-.011-1.666.012-2.489.049-4.836-10.375-17.892-16.555-31.915-14.24-16.332 2.696-27.756 15.876-25.512 29.439a20.951 20.951 0 0 0 .575 2.508 32.005 32.005 0 0 0 -4.913 2.158c-12.925 7.011-18.679 21.392-12.862 32.118 5.038 9.283 17.089 12.776 28.615 9.013 3.762 9.169 14.119 15.851 26.429 16.014 14.326.188 26.251-8.512 28.26-19.961 15.862-2.46 27.922-13.92 28.106-27.847z" fill="#feca36" data-original="#feca36" class=""></path><rect xmlns="http://www.w3.org/2000/svg" height="42.137" rx="1.472" width="12.532" x="11" y="61.171" fill="#000000" data-original="#000000"></rect><path xmlns="http://www.w3.org/2000/svg" d="m21.661 100.6h-8.79v-38.4h8.79z" fill="#40cec8" data-original="#40cec8" class=""></path><path xmlns="http://www.w3.org/2000/svg" d="m62.3 73.044a22.26 22.26 0 0 0 -7.351-14 17.625 17.625 0 0 0 -14.786-4.071l-14.384 2.152a1.473 1.473 0 0 0 -1.239 1.675l5.789 38.763a1.471 1.471 0 0 0 1.671 1.237l12.857-1.92c6.531-.975 11.352-3.773 14.332-8.317a21.647 21.647 0 0 0 3.111-15.519zm-12.544 10.684a8.471 8.471 0 0 1 -6.006 3.818l-3.853.575-3.477-23.284 4.66-.7a6.967 6.967 0 0 1 6.349 2.209 13.848 13.848 0 0 1 3.688 7.967c.603 4.044.145 7.21-1.361 9.415z" fill="#000000" data-original="#000000"></path><path xmlns="http://www.w3.org/2000/svg" d="m32 96.06-5.675-37.973 13.993-2.087a15.768 15.768 0 0 1 13.282 3.63 20.361 20.361 0 0 1 6.727 12.86 19.74 19.74 0 0 1 -2.827 14.216q-4.03 6.147-13.044 7.493zm6.2-6.642 5.7-.852a10.336 10.336 0 0 0 7.274-4.613q2.685-3.927 1.667-10.743a15.778 15.778 0 0 0 -4.2-9 8.8 8.8 0 0 0 -7.962-2.75l-6.51.972z" fill="#40cec8" data-original="#40cec8" class=""></path><path xmlns="http://www.w3.org/2000/svg" d="m92.479 89.313h-16.558v-7h12.817a1.472 1.472 0 0 0 1.472-1.472v-6.371a1.472 1.472 0 0 0 -1.472-1.47h-12.817v-6.668h16.3a1.473 1.473 0 0 0 1.479-1.472v-6.507a1.472 1.472 0 0 0 -1.472-1.472h-27.366a1.473 1.473 0 0 0 -1.473 1.472v39.192a1.474 1.474 0 0 0 1.473 1.473h27.617a1.473 1.473 0 0 0 1.473-1.473v-6.76a1.472 1.472 0 0 0 -1.473-1.472z" fill="#000000" data-original="#000000"></path><path xmlns="http://www.w3.org/2000/svg" d="m92.08 96.307h-26.82v-38.4h26.567v5.71h-17.777v10.413h14.289v5.57h-14.289v10.744h18.03z" fill="#40cec8" data-original="#40cec8" class=""></path><path xmlns="http://www.w3.org/2000/svg" d="m129.316 99.963-12.638-39.363a1.472 1.472 0 0 0 -1.382-1.022l-10.967-.143a1.472 1.472 0 0 0 -1.41.99l-13.519 39.022a1.472 1.472 0 0 0 1.372 1.954l6.748.088a1.471 1.471 0 0 0 1.411-.993l2.782-8.095 12.067.158 2.623 8.172a1.473 1.473 0 0 0 1.383 1.023l10.107.131a1.472 1.472 0 0 0 1.423-1.922zm-24.538-16.8 3.137-9.2 2.9 9.274z" fill="#000000" data-original="#000000"></path><path xmlns="http://www.w3.org/2000/svg" d="m127.377 99.168-9.268-.121-2.946-9.181-14.763-.192-3.129 9.1-5.909-.074 13.238-38.227 10.4.136zm-14-14.867-5.374-17.2-5.82 17.055z" fill="#40cec8" data-original="#40cec8" class=""></path><path xmlns="http://www.w3.org/2000/svg" d="m129.074 78.611h7.218a1.471 1.471 0 0 0 1.471-1.406l1.237-27.547a1.471 1.471 0 0 0 -1.47-1.538h-9.544a1.472 1.472 0 0 0 -1.471 1.53l1.085 27.55a1.471 1.471 0 0 0 1.474 1.411z" fill="#000000" data-original="#000000"></path><rect xmlns="http://www.w3.org/2000/svg" height="10.774" rx="1.472" width="10.745" x="127.242" y="79.483" fill="#000000" data-original="#000000"></rect><path xmlns="http://www.w3.org/2000/svg" d="m136.988 49.151-.97 26.75h-6.667l-.83-26.75zm-.872 31.363v7.032h-7v-7.032z" fill="#40cec8" data-original="#40cec8" class=""></path><g xmlns="http://www.w3.org/2000/svg" fill="#ffb900"><path d="m98.723 40.089s2.376-25.9 12.511-20.709c9.119 4.673-12.511 20.709-12.511 20.709z" fill="#ffb900" data-original="#ffb900"></path><path d="m108.6 108.886s18.54 9.744 12.984 16.824-12.984-16.824-12.984-16.824z" fill="#ffb900" data-original="#ffb900"></path><path d="m45.178 112.167s-.7 20.934-9.488 19.017 9.488-19.017 9.488-19.017z" fill="#ffb900" data-original="#ffb900"></path><path d="m29.59 54.048s-21.007-12.612-12-17.539c7.248-3.966 12 17.539 12 17.539z" fill="#ffb900" data-original="#ffb900"></path></g></g></svg>