<?xml version="1.0" standalone="no"?><!DOCTYPE svg PUBLIC "-//W3C//DTD SVG 1.1//EN" "http://www.w3.org/Graphics/SVG/1.1/DTD/svg11.dtd"><svg t="1660312716447" class="icon" viewBox="0 0 1165 1024" version="1.1" xmlns="http://www.w3.org/2000/svg" p-id="787" xmlns:xlink="http://www.w3.org/1999/xlink" width="72.8125" height="64"><defs><style type="text/css">@font-face { font-family: feedback-iconfont; src: url("//at.alicdn.com/t/font_1031158_u69w8yhxdu.woff2?t=1630033759944") format("woff2"), url("//at.alicdn.com/t/font_1031158_u69w8yhxdu.woff?t=1630033759944") format("woff"), url("//at.alicdn.com/t/font_1031158_u69w8yhxdu.ttf?t=1630033759944") format("truetype"); }
</style></defs><path d="M1002.032859 1023.985189H163.295231C73.256981 1023.985189 0 947.099425 0 852.617767V475.579817a34.273484 34.273484 0 0 1 68.546969 0v377.03795c0 56.697882 42.5086 102.820453 94.792696 102.820453h838.693194c52.239663 0 94.792697-46.122571 94.792697-102.820453V509.868112a34.273484 34.273484 0 1 1 68.546968 0v342.749655c-0.044434 94.481658-73.301415 171.367422-163.339665 171.367422z" fill="#FFF000" p-id="788"></path><path d="M582.664045 768.074531a36.554434 36.554434 0 0 1-36.554434-36.554434v-694.652729a36.554434 36.554434 0 1 1 73.108868 0v694.652729a36.554434 36.554434 0 0 1-36.554434 36.554434z" fill="#E51373" p-id="789"></path><path d="M253.570463 402.485761a36.569245 36.569245 0 0 1-25.845821-62.415066L556.818224 11.036358a36.554434 36.554434 0 1 1 51.691642 51.691643L279.47553 391.762337a36.376697 36.376697 0 0 1-25.905067 10.723424z" fill="#E51373" p-id="790"></path><path d="M911.698381 402.485761a36.40632 36.40632 0 0 1-25.845821-10.723424L556.818224 62.728001a36.554434 36.554434 0 0 1 51.691642-51.691643l329.034337 329.034337a36.569245 36.569245 0 0 1-25.845822 62.415066z" fill="#E51373" p-id="791"></path></svg>